<svg width="197" height="42" viewBox="0 0 197 42" fill="white" xmlns="http://www.w3.org/2000/svg"><g id="Group 2"><g id="Group"><g id="Layer 2"><g id="Layer 1"><g id="Vector"><path d="M6.78117 41.3184C5.59067 41.3174 4.42137 41.0051 3.39064 40.4128C2.35991 39.8204 1.50402 38.9689 0.908877 37.9438C0.313738 36.9186 0.000291146 35.7558 2.02726e-07 34.5721C-0.00029074 33.3884 0.312585 32.2254 0.90722 31.1999L16.0362 5.14703C16.9962 3.49371 18.3998 2.1384 20.09 1.23257C21.7801 0.326742 23.6903 -0.0939266 25.6071 0.0175764C27.5239 0.129079 29.3717 0.768361 30.9442 1.86398C32.5166 2.9596 33.7516 4.46839 34.5112 6.22175L36.1649 10.0364C39.0572 9.7534 41.9662 10.3741 44.4869 11.8121C47.0077 13.2502 49.0148 15.4339 50.2288 18.0594L54.7836 27.9009C55.2465 28.8985 55.5055 29.9776 55.5455 31.0755C55.5856 32.1735 55.4058 33.2684 55.0167 34.2967C54.6277 35.325 54.037 36.2662 53.279 37.0657C52.5211 37.8651 51.6109 38.5069 50.6015 38.9537C49.592 39.4006 48.5033 39.6435 47.3986 39.6686C46.2939 39.6936 45.1952 39.5001 44.1664 39.0994C43.1375 38.6988 42.1989 38.0988 41.4051 37.3345C40.6114 36.5702 39.9782 35.6567 39.5425 34.6471L32.5719 18.5645C32.5123 18.6203 32.4528 18.676 32.3967 18.7387L11.5672 39.3518C10.2971 40.6122 8.57561 41.3195 6.78117 41.3184ZM24.9864 6.65547C24.3454 6.65119 23.7149 6.81756 23.1604 7.13734C22.6059 7.45711 22.1476 7.91862 21.833 8.47397L6.70409 34.5286C6.69275 34.5475 6.68916 34.5699 6.69405 34.5913C6.69895 34.6127 6.71195 34.6314 6.73036 34.6436C6.74725 34.6559 6.76803 34.6618 6.78892 34.6602C6.80981 34.6586 6.82944 34.6496 6.84423 34.6349L27.6667 14.0165C28.3302 13.3613 29.0579 12.7737 29.839 12.2625L28.3674 8.85543C28.1052 8.23011 27.6695 7.69187 27.1111 7.30356C26.5528 6.91524 25.8948 6.69288 25.2141 6.66244C25.1388 6.65721 25.0635 6.65547 24.9864 6.65547ZM39.0923 16.7931L45.6845 32.0151C45.7632 32.2249 45.8844 32.4164 46.0404 32.5778C46.1965 32.7392 46.3842 32.8671 46.5919 32.9537C46.7996 33.0402 47.0229 33.0835 47.2481 33.0809C47.4733 33.0782 47.6955 33.0298 47.9011 32.9385C48.1068 32.8472 48.2914 32.7149 48.4436 32.5499C48.5958 32.3849 48.7125 32.1907 48.7863 31.9791C48.8601 31.7676 48.8895 31.5433 48.8728 31.32C48.856 31.0967 48.7934 30.8792 48.6889 30.6809L44.1341 20.8394C43.6713 19.8193 42.9739 18.9217 42.0981 18.2188C41.2223 17.516 40.1927 17.0276 39.0923 16.7931Z" fill="#8861E0"></path><path d="M6.78117 41.3184C5.59067 41.3174 4.42137 41.0051 3.39064 40.4128C2.35991 39.8204 1.50402 38.9689 0.908877 37.9438C0.313738 36.9186 0.000291146 35.7558 2.02726e-07 34.5721C-0.00029074 33.3884 0.312585 32.2254 0.90722 31.1999L16.0362 5.14703C16.9962 3.49371 18.3998 2.1384 20.09 1.23257C21.7801 0.326742 23.6903 -0.0939266 25.6071 0.0175764C27.5239 0.129079 29.3717 0.768361 30.9442 1.86398C32.5166 2.9596 33.7516 4.46839 34.5112 6.22175L36.1649 10.0364C39.0572 9.7534 41.9662 10.3741 44.4869 11.8121C47.0077 13.2502 49.0148 15.4339 50.2288 18.0594L54.7836 27.9009C55.2465 28.8985 55.5055 29.9776 55.5455 31.0755C55.5856 32.1735 55.4058 33.2684 55.0167 34.2967C54.6277 35.325 54.037 36.2662 53.279 37.0657C52.5211 37.8651 51.6109 38.5069 50.6015 38.9537C49.592 39.4006 48.5033 39.6435 47.3986 39.6686C46.2939 39.6936 45.1952 39.5001 44.1664 39.0994C43.1375 38.6988 42.1989 38.0988 41.4051 37.3345C40.6114 36.5702 39.9782 35.6567 39.5425 34.6471L32.5719 18.5645C32.5123 18.6203 32.4528 18.676 32.3967 18.7387L11.5672 39.3518C10.2971 40.6122 8.57561 41.3195 6.78117 41.3184ZM24.9864 6.65547C24.3454 6.65119 23.7149 6.81756 23.1604 7.13734C22.6059 7.45711 22.1476 7.91862 21.833 8.47397L6.70409 34.5286C6.69275 34.5475 6.68916 34.5699 6.69405 34.5913C6.69895 34.6127 6.71195 34.6314 6.73036 34.6436C6.74725 34.6559 6.76803 34.6618 6.78892 34.6602C6.80981 34.6586 6.82944 34.6496 6.84423 34.6349L27.6667 14.0165C28.3302 13.3613 29.0579 12.7737 29.839 12.2625L28.3674 8.85543C28.1052 8.23011 27.6695 7.69187 27.1111 7.30356C26.5528 6.91524 25.8948 6.69288 25.2141 6.66244C25.1388 6.65721 25.0635 6.65547 24.9864 6.65547ZM39.0923 16.7931L45.6845 32.0151C45.7632 32.2249 45.8844 32.4164 46.0404 32.5778C46.1965 32.7392 46.3842 32.8671 46.5919 32.9537C46.7996 33.0402 47.0229 33.0835 47.2481 33.0809C47.4733 33.0782 47.6955 33.0298 47.9011 32.9385C48.1068 32.8472 48.2914 32.7149 48.4436 32.5499C48.5958 32.3849 48.7125 32.1907 48.7863 31.9791C48.8601 31.7676 48.8895 31.5433 48.8728 31.32C48.856 31.0967 48.7934 30.8792 48.6889 30.6809L44.1341 20.8394C43.6713 19.8193 42.9739 18.9217 42.0981 18.2188C41.2223 17.516 40.1927 17.0276 39.0923 16.7931Z" fill="url(#paint0_linear_3195_4103)"></path></g><g id="Group_2" style="mix-blend-mode:color-burn" opacity="0.3"><g id="Clip path group"><mask id="mask0_3195_4103" style="mask-type:luminance" maskUnits="userSpaceOnUse" x="32" y="16" width="10" height="9"><g id="clip-path"><path id="Vector_2" d="M32.584 18.5641C33.3484 17.6311 34.3868 16.9587 35.5542 16.6408C36.7216 16.3229 37.9597 16.3754 39.0956 16.7909C39.7812 18.369 40.4679 19.9471 41.1558 21.5253L35.0436 24.2878L32.584 18.5641Z" fill="white"></path></g></mask><g mask="url(#mask0_3195_4103)"><g id="Group_3"><path id="Vector_3" d="M35.103 24.2877L41.1469 21.8613V24.2877H35.103Z" fill="white"></path><path id="Vector_4" d="M35.0063 24.287L41.1466 21.8223V21.8606L35.1027 24.287H35.0063Z" fill="white"></path><path id="Vector_5" d="M34.9106 24.288L41.1472 21.7832V21.8233L35.007 24.288H34.9106Z" fill="#FEFEFE"></path><path id="Vector_6" d="M34.814 24.2872L41.1469 21.7441V21.7825L34.9103 24.2872H34.814Z" fill="#FDFDFD"></path><path id="Vector_7" d="M34.7178 24.2865L41.1471 21.7051V21.7434L34.8141 24.2865H34.7178Z" fill="#FCFCFC"></path><path id="Vector_8" d="M34.6211 24.2877L41.1467 21.668V21.7063L34.7174 24.2877H34.6211Z" fill="#FBFBFB"></path><path id="Vector_9" d="M34.5249 24.2868L41.1469 21.627V21.667L34.6213 24.2868H34.5249Z" fill="#FAFAFA"></path><path id="Vector_10" d="M34.4272 24.286L41.1473 21.5879V21.6262L34.5253 24.286H34.4272Z" fill="#F9F9F9"></path><path id="Vector_11" d="M34.3306 24.2872L41.147 21.5508V21.5891L34.4269 24.2872H34.3306Z" fill="#F8F8F8"></path><path id="Vector_12" d="M34.2344 24.2865L41.1472 21.5117V21.55L34.3307 24.2865H34.2344Z" fill="#F7F7F7"></path><path id="Vector_13" d="M34.1377 24.2875L41.1468 21.4727V21.5127L34.234 24.2875H34.1377Z" fill="#F6F6F6"></path><path id="Vector_14" d="M34.0415 24.2867L41.147 21.4336V21.4719L34.1379 24.2867H34.0415Z" fill="#F5F5F5"></path><path id="Vector_15" d="M33.9448 24.286L41.1467 21.3945V21.4329L34.0412 24.286H33.9448Z" fill="#F4F4F4"></path><path id="Vector_16" d="M33.8491 24.2872L41.1473 21.3574V21.3957L33.9455 24.2872H33.8491Z" fill="#F3F3F3"></path><path id="Vector_17" d="M33.7524 24.2863L41.147 21.3164V21.3565L33.8488 24.2863H33.7524Z" fill="#F2F2F2"></path><path id="Vector_18" d="M33.6543 24.2875L41.147 21.2793V21.3176L33.7524 24.2875H33.6543Z" fill="#F1F1F1"></path><path id="Vector_19" d="M33.5576 24.2867L41.1466 21.2402V21.2786L33.654 24.2867H33.5576Z" fill="#F0F0F0"></path><path id="Vector_20" d="M33.4614 24.286L41.1468 21.2012V21.2395L33.5578 24.286H33.4614Z" fill="#EFEFEF"></path><path id="Vector_21" d="M33.3652 24.287L41.1469 21.1621V21.2022L33.4616 24.287H33.3652Z" fill="#EEEEEE"></path><path id="Vector_22" d="M33.269 24.2863L41.1471 21.123V21.1614L33.3654 24.2863H33.269Z" fill="#EDEDED"></path><path id="Vector_23" d="M33.1724 24.2875L41.1468 21.0859V21.1243L33.2687 24.2875H33.1724Z" fill="#ECECEC"></path><path id="Vector_24" d="M33.0762 24.2867L41.1469 21.0469V21.0852L33.1725 24.2867H33.0762Z" fill="#EBEBEB"></path><path id="Vector_25" d="M32.978 24.2858L41.1469 21.0059V21.0459L33.0761 24.2858H32.978Z" fill="#EAEAEA"></path><path id="Vector_26" d="M32.8818 24.287L41.1471 20.9688V21.0071L32.9782 24.287H32.8818Z" fill="#E9E9E9"></path><path id="Vector_27" d="M32.7856 24.2862L41.1472 20.9297V20.968L32.882 24.2862H32.7856Z" fill="#E8E8E8"></path><path id="Vector_28" d="M32.689 24.2872L41.1469 20.8906V20.9307L32.7853 24.2872H32.689Z" fill="#E7E7E7"></path><path id="Vector_29" d="M32.5928 24.2865L41.1471 20.8516V20.8899L32.6891 24.2865H32.5928Z" fill="#E6E6E6"></path><path id="Vector_30" d="M32.584 24.2529L41.147 20.8145V20.8528L32.5927 24.2877H32.584V24.2529Z" fill="#E5E5E5"></path><path id="Vector_31" d="M32.584 24.2121L41.147 20.7754V20.8137L32.584 24.2521V24.2121Z" fill="#E4E4E4"></path><path id="Vector_32" d="M32.584 24.1728L41.147 20.7344V20.7744L32.584 24.2111V24.1728Z" fill="#E3E3E3"></path><path id="Vector_33" d="M32.584 24.1357L41.147 20.6973V20.7356L32.584 24.174V24.1357Z" fill="#E2E2E2"></path><path id="Vector_34" d="M32.584 24.0966L41.147 20.6582V20.6965L32.584 24.1349V24.0966Z" fill="#E1E1E1"></path><path id="Vector_35" d="M32.584 24.0578L41.147 20.6211V20.6594L32.584 24.0978V24.0578Z" fill="#E0E0E0"></path><path id="Vector_36" d="M32.584 24.0185L41.147 20.5801V20.6201L32.584 24.0568V24.0185Z" fill="#DFDFDF"></path><path id="Vector_37" d="M32.584 23.9794L41.147 20.541V20.5793L32.584 24.0178V23.9794Z" fill="#DEDEDE"></path><path id="Vector_38" d="M32.584 23.9423L41.147 20.5039V20.5422L32.584 23.9806V23.9423Z" fill="#DDDDDD"></path><path id="Vector_39" d="M32.584 23.9015L41.147 20.4648V20.5032L32.584 23.9416V23.9015Z" fill="#DCDCDC"></path><path id="Vector_40" d="M32.584 23.8642L41.147 20.4258V20.4658L32.584 23.9025V23.8642Z" fill="#DBDBDB"></path><path id="Vector_41" d="M32.584 23.8251L41.147 20.3867V20.425L32.584 23.8635V23.8251Z" fill="#DADADA"></path><path id="Vector_42" d="M32.584 23.7861L41.147 20.3477V20.386L32.584 23.8244V23.7861Z" fill="#D9D9D9"></path><path id="Vector_43" d="M32.584 23.7472L41.147 20.3105V20.3489L32.584 23.7873V23.7472Z" fill="#D8D8D8"></path><path id="Vector_44" d="M32.584 23.708L41.147 20.2695V20.3096L32.584 23.7463V23.708Z" fill="#D7D7D7"></path><path id="Vector_45" d="M32.584 23.6708L41.147 20.2324V20.2707L32.584 23.7092V23.6708Z" fill="#D6D6D6"></path><path id="Vector_46" d="M32.584 23.6318L41.147 20.1934V20.2317L32.584 23.6701V23.6318Z" fill="#D5D5D5"></path><path id="Vector_47" d="M32.584 23.591L41.147 20.1543V20.1926L32.584 23.631V23.591Z" fill="#D4D4D4"></path><path id="Vector_48" d="M32.584 23.5537L41.147 20.1152V20.1553L32.584 23.592V23.5537Z" fill="#D3D3D3"></path><path id="Vector_49" d="M32.584 23.5146L41.147 20.0762V20.1145L32.584 23.5529V23.5146Z" fill="#D2D2D2"></path><path id="Vector_50" d="M32.584 23.4757L41.147 20.0391V20.0774L32.584 23.5158V23.4757Z" fill="#D1D1D1"></path><path id="Vector_51" d="M32.584 23.4367L41.147 20V20.0383L32.584 23.475V23.4367Z" fill="#D0D0D0"></path><path id="Vector_52" d="M32.584 23.3994L41.147 19.9609V20.001L32.584 23.4377V23.3994Z" fill="#CFCFCF"></path><path id="Vector_53" d="M32.584 23.3603L41.147 19.9219V19.9602L32.584 23.3986V23.3603Z" fill="#CECECE"></path><path id="Vector_54" d="M32.584 23.3212L41.147 19.8828V19.9211L32.584 23.3596V23.3212Z" fill="#CDCDCD"></path><path id="Vector_55" d="M32.584 23.2824L41.147 19.8457V19.884L32.584 23.3224V23.2824Z" fill="#CCCCCC"></path><path id="Vector_56" d="M32.584 23.2431L41.147 19.8047V19.8447L32.584 23.2814V23.2431Z" fill="#CBCBCB"></path><path id="Vector_57" d="M32.584 23.206L41.147 19.7676V19.8059L32.584 23.2443V23.206Z" fill="#CACACA"></path><path id="Vector_58" d="M32.584 23.1652L41.147 19.7285V19.7668L32.584 23.2053V23.1652Z" fill="#C9C9C9"></path><path id="Vector_59" d="M32.584 23.1261L41.147 19.6895V19.7278L32.584 23.1644V23.1261Z" fill="#C8C8C8"></path><path id="Vector_60" d="M32.584 23.0888L41.147 19.6504V19.6905L32.584 23.1271V23.0888Z" fill="#C7C7C7"></path><path id="Vector_61" d="M32.584 23.0497L41.147 19.6113V19.6496L32.584 23.0881V23.0497Z" fill="#C6C6C6"></path><path id="Vector_62" d="M32.584 23.0109L41.147 19.5742V19.6125L32.584 23.051V23.0109Z" fill="#C5C5C5"></path><path id="Vector_63" d="M32.584 22.9718L41.147 19.5352V19.5735L32.584 23.0102V22.9718Z" fill="#C4C4C4"></path><path id="Vector_64" d="M32.584 22.9326L41.147 19.4941V19.5342L32.584 22.9709V22.9326Z" fill="#C3C3C3"></path><path id="Vector_65" d="M32.584 22.8955L41.147 19.457V19.4954L32.584 22.9338V22.8955Z" fill="#C2C2C2"></path><path id="Vector_66" d="M32.584 22.8546L41.147 19.418V19.4563L32.584 22.8947V22.8546Z" fill="#C1C1C1"></path><path id="Vector_67" d="M32.584 22.8175L41.147 19.3809V19.4192L32.584 22.8559V22.8175Z" fill="#C0C0C0"></path><path id="Vector_68" d="M32.584 22.7783L41.147 19.3398V19.3799L32.584 22.8166V22.7783Z" fill="#BFBFBF"></path><path id="Vector_69" d="M32.584 22.7392L41.147 19.3008V19.3391L32.584 22.7775V22.7392Z" fill="#BEBEBE"></path><path id="Vector_70" d="M32.584 22.7003L41.147 19.2637V19.302L32.584 22.7404V22.7003Z" fill="#BDBDBD"></path><path id="Vector_71" d="M32.584 22.6613L41.147 19.2246V19.2629L32.584 22.6996V22.6613Z" fill="#BCBCBC"></path><path id="Vector_72" d="M32.584 22.624L41.147 19.1855V19.2256L32.584 22.6623V22.624Z" fill="#BBBBBB"></path><path id="Vector_73" d="M32.584 22.5849L41.147 19.1465V19.1848L32.584 22.6232V22.5849Z" fill="#BABABA"></path><path id="Vector_74" d="M32.584 22.5441L41.147 19.1074V19.1457L32.584 22.5842V22.5441Z" fill="#B9B9B9"></path><path id="Vector_75" d="M32.584 22.5068L41.147 19.0684V19.1084L32.584 22.5451V22.5068Z" fill="#B8B8B8"></path><path id="Vector_76" d="M32.584 22.4677L41.147 19.0293V19.0676L32.584 22.506V22.4677Z" fill="#B7B7B7"></path><path id="Vector_77" d="M32.584 22.4287L41.147 18.9902V19.0286L32.584 22.467V22.4287Z" fill="#B6B6B6"></path><path id="Vector_78" d="M32.584 22.3898L41.147 18.9531V18.9914L32.584 22.4299V22.3898Z" fill="#B5B5B5"></path><path id="Vector_79" d="M32.584 22.3525L41.147 18.9141V18.9541L32.584 22.3908V22.3525Z" fill="#B4B4B4"></path><path id="Vector_80" d="M32.584 22.3134L41.147 18.875V18.9133L32.584 22.3517V22.3134Z" fill="#B3B3B3"></path><path id="Vector_81" d="M32.584 22.2726L41.147 18.8359V18.8743L32.584 22.3127V22.2726Z" fill="#B2B2B2"></path><path id="Vector_82" d="M32.584 22.2355L41.147 18.7988V18.8371L32.584 22.2738V22.2355Z" fill="#B1B1B1"></path><path id="Vector_83" d="M32.584 22.1962L41.147 18.7578V18.7979L32.584 22.2346V22.1962Z" fill="#B0B0B0"></path><path id="Vector_84" d="M32.584 22.1591L41.147 18.7207V18.759L32.584 22.1974V22.1591Z" fill="#AFAFAF"></path><path id="Vector_85" d="M32.584 22.1183L41.147 18.6816V18.72L32.584 22.1584V22.1183Z" fill="#AEAEAE"></path><path id="Vector_86" d="M32.584 22.0793L41.147 18.6426V18.6809L32.584 22.1176V22.0793Z" fill="#ADADAD"></path><path id="Vector_87" d="M32.584 22.0419L41.147 18.6035V18.6436L32.584 22.0803V22.0419Z" fill="#ACACAC"></path><path id="Vector_88" d="M32.584 22.0029L41.147 18.5645V18.6028L32.584 22.0412V22.0029Z" fill="#ABABAB"></path><path id="Vector_89" d="M32.584 21.964L41.147 18.5273V18.5657L32.584 22.0041V21.964Z" fill="#AAAAAA"></path><path id="Vector_90" d="M32.584 21.925L41.147 18.4883V18.5266L32.584 21.9633V21.925Z" fill="#A9A9A9"></path><path id="Vector_91" d="M32.584 21.8857L41.147 18.4473V18.4873L32.584 21.924V21.8857Z" fill="#A8A8A8"></path><path id="Vector_92" d="M32.584 21.8486L41.147 18.4102V18.4485L32.584 21.8869V21.8486Z" fill="#A7A7A7"></path><path id="Vector_93" d="M32.584 21.8078L41.147 18.3711V18.4094L32.584 21.8478V21.8078Z" fill="#A6A6A6"></path><path id="Vector_94" d="M32.584 21.7707L41.147 18.334V18.3723L32.584 21.809V21.7707Z" fill="#A5A5A5"></path><path id="Vector_95" d="M32.584 21.7314L41.147 18.293V18.333L32.584 21.7697V21.7314Z" fill="#A4A4A4"></path><path id="Vector_96" d="M32.584 21.6923L41.147 18.2539V18.2922L32.584 21.7306V21.6923Z" fill="#A3A3A3"></path><path id="Vector_97" d="M32.584 21.6535L41.147 18.2168V18.2551L32.584 21.6935V21.6535Z" fill="#A2A2A2"></path><path id="Vector_98" d="M32.584 21.6144L41.147 18.1777V18.2161L32.584 21.6527V21.6144Z" fill="#A1A1A1"></path><path id="Vector_99" d="M32.584 21.5771L41.147 18.1387V18.1787L32.584 21.6154V21.5771Z" fill="#A0A0A0"></path><path id="Vector_100" d="M32.584 21.538L41.147 18.0996V18.1379L32.584 21.5763V21.538Z" fill="#9F9F9F"></path><path id="Vector_101" d="M32.584 21.4992L41.147 18.0625V18.1008L32.584 21.5392V21.4992Z" fill="#9E9E9E"></path><path id="Vector_102" d="M32.584 21.4599L41.147 18.0215V18.0615L32.584 21.4982V21.4599Z" fill="#9D9D9D"></path><path id="Vector_103" d="M32.584 21.4208L41.147 17.9824V18.0207L32.584 21.4592V21.4208Z" fill="#9C9C9C"></path><path id="Vector_104" d="M32.584 21.3818L41.147 17.9434V17.9817L32.584 21.4201V21.3818Z" fill="#9B9B9B"></path><path id="Vector_105" d="M32.584 21.3429L41.147 17.9062V17.9446L32.584 21.383V21.3429Z" fill="#9A9A9A"></path><path id="Vector_106" d="M32.584 21.3056L41.147 17.8672V17.9073L32.584 21.3439V21.3056Z" fill="#999999"></path><path id="Vector_107" d="M32.584 21.2665L41.147 17.8281V17.8664L32.584 21.3049V21.2665Z" fill="#989898"></path><path id="Vector_108" d="M32.584 21.2275L41.147 17.7891V17.8274L32.584 21.2658V21.2275Z" fill="#979797"></path><path id="Vector_109" d="M32.584 21.1886L41.147 17.752V17.7903L32.584 21.2287V21.1886Z" fill="#969696"></path><path id="Vector_110" d="M32.584 21.1494L41.147 17.7109V17.751L32.584 21.1877V21.1494Z" fill="#959595"></path><path id="Vector_111" d="M32.584 21.1122L41.147 17.6738V17.7121L32.584 21.1506V21.1122Z" fill="#949494"></path><path id="Vector_112" d="M32.584 21.0732L41.147 17.6348V17.6731L32.584 21.1115V21.0732Z" fill="#939393"></path><path id="Vector_113" d="M32.584 21.0324L41.147 17.5957V17.634L32.584 21.0724V21.0324Z" fill="#929292"></path><path id="Vector_114" d="M32.584 20.9951L41.147 17.5566V17.5967L32.584 21.0334V20.9951Z" fill="#919191"></path><path id="Vector_115" d="M32.584 20.956L41.147 17.5176V17.5559L32.584 20.9943V20.956Z" fill="#909090"></path><path id="Vector_116" d="M32.584 20.9189L41.147 17.4805V17.5188L32.584 20.9572V20.9189Z" fill="#8F8F8F"></path><path id="Vector_117" d="M32.584 20.8781L41.147 17.4414V17.4797L32.584 20.9181V20.8781Z" fill="#8E8E8E"></path><path id="Vector_118" d="M32.584 20.8388L41.147 17.4004V17.4405L32.584 20.8771V20.8388Z" fill="#8E8E8C"></path><path id="Vector_119" d="M32.584 20.8017L41.147 17.3633V17.4016L32.584 20.84V20.8017Z" fill="#8D8D8B"></path><path id="Vector_120" d="M32.584 20.7626L41.147 17.3242V17.3625L32.584 20.801V20.7626Z" fill="#8C8C8A"></path><path id="Vector_121" d="M32.584 20.7238L41.147 17.2871V17.3254L32.584 20.7638V20.7238Z" fill="#8B8B89"></path><path id="Vector_122" d="M32.584 20.6845L41.147 17.2461V17.2862L32.584 20.7228V20.6845Z" fill="#8A8A88"></path><path id="Vector_123" d="M32.584 20.6474L41.147 17.209V17.2473L32.584 20.6857V20.6474Z" fill="#898987"></path><path id="Vector_124" d="M32.584 20.6083L41.147 17.1699V17.2082L32.584 20.6467V20.6083Z" fill="#888886"></path><path id="Vector_125" d="M32.584 20.5675L41.147 17.1309V17.1692L32.584 20.6076V20.5675Z" fill="#878785"></path><path id="Vector_126" d="M32.584 20.5302L41.147 17.0918V17.1319L32.584 20.5685V20.5302Z" fill="#868684"></path><path id="Vector_127" d="M32.584 20.4912L41.147 17.0527V17.0911L32.584 20.5295V20.4912Z" fill="#858583"></path><path id="Vector_128" d="M32.584 20.4523L41.147 17.0156V17.0539L32.584 20.4924V20.4523Z" fill="#848482"></path><path id="Vector_129" d="M32.584 20.4132L41.147 16.9766V17.0149L32.584 20.4516V20.4132Z" fill="#838381"></path><path id="Vector_130" d="M32.584 20.374L41.147 16.9355V16.9756L32.584 20.4123V20.374Z" fill="#828280"></path><path id="Vector_131" d="M32.584 20.3369L41.147 16.8984V16.9368L32.584 20.3752V20.3369Z" fill="#81817F"></path><path id="Vector_132" d="M32.584 20.2961L41.147 16.8594V16.8977L32.584 20.3361V20.2961Z" fill="#80807E"></path><path id="Vector_133" d="M32.584 20.2587L41.147 16.8203V16.8604L32.584 20.2971V20.2587Z" fill="#7F7F7D"></path><path id="Vector_134" d="M32.584 20.2197L41.147 16.7812V16.8196L32.584 20.258V20.2197Z" fill="#7E7E7C"></path><path id="Vector_135" d="M32.584 20.1806L41.147 16.7422V16.7805L32.584 20.2189V20.1806Z" fill="#7D7D7B"></path><path id="Vector_136" d="M32.584 20.1418L41.147 16.7051V16.7434L32.584 20.1818V20.1418Z" fill="#7C7C7A"></path><path id="Vector_137" d="M32.584 20.1025L41.147 16.6641V16.7041L32.584 20.1408V20.1025Z" fill="#7B7B79"></path><path id="Vector_138" d="M32.584 20.0654L41.147 16.627V16.6653L32.584 20.1037V20.0654Z" fill="#7A7A78"></path><path id="Vector_139" d="M32.584 20.0263L41.147 16.5879V16.6262L32.584 20.0646V20.0263Z" fill="#797977"></path><path id="Vector_140" d="M32.584 19.9855L41.147 16.5488V16.5871L32.584 20.0256V19.9855Z" fill="#787876"></path><path id="Vector_141" d="M32.584 19.9484L41.147 16.5117V16.55L32.584 19.9867V19.9484Z" fill="#777775"></path><path id="Vector_142" d="M32.584 19.9091L41.147 16.4707V16.5108L32.584 19.9474V19.9091Z" fill="#767674"></path><path id="Vector_143" d="M32.584 19.8701L41.147 16.4316V16.47L32.584 19.9084V19.8701Z" fill="#757573"></path><path id="Vector_144" d="M32.584 19.8332L41.147 16.3965V16.4348L32.584 19.8732V19.8332Z" fill="#747472"></path><path id="Vector_145" d="M32.584 19.7939L41.147 16.3555V16.3955L32.584 19.8322V19.7939Z" fill="#737371"></path><path id="Vector_146" d="M32.584 19.7548L41.147 16.3164V16.3547L32.584 19.7931V19.7548Z" fill="#727270"></path><path id="Vector_147" d="M32.584 19.7158L41.147 16.2773V16.3157L32.584 19.7541V19.7158Z" fill="#71716F"></path><path id="Vector_148" d="M32.584 19.6769L41.147 16.2402V16.2786L32.584 19.717V19.6769Z" fill="#70706E"></path><path id="Vector_149" d="M32.584 19.6376L41.147 16.1992V16.2393L32.584 19.676V19.6376Z" fill="#6F6F6D"></path><path id="Vector_150" d="M32.584 19.6005L41.147 16.1621V16.2004L32.584 19.6388V19.6005Z" fill="#6E6E6C"></path><path id="Vector_151" d="M32.584 19.5596L41.0664 16.1543H41.147V16.1613L32.584 19.5997V19.5596Z" fill="#6D6D6B"></path><path id="Vector_152" d="M32.584 19.5213L40.9701 16.1543H41.0664L32.584 19.5596V19.5213Z" fill="#6C6C6A"></path><path id="Vector_153" d="M32.584 19.483L40.8737 16.1543H40.9701L32.584 19.5213V19.483Z" fill="#6B6B69"></path><path id="Vector_154" d="M32.584 19.4447L40.7774 16.1543H40.8737L32.584 19.483V19.4447Z" fill="#6A6A68"></path><path id="Vector_155" d="M32.584 19.4046L40.681 16.1543H40.7774L32.584 19.4447V19.4046Z" fill="#696967"></path><path id="Vector_156" d="M32.584 19.3663L40.5847 16.1543H40.681L32.584 19.4046V19.3663Z" fill="#686866"></path><path id="Vector_157" d="M32.584 19.328L40.4883 16.1543H40.5847L32.584 19.3663V19.328Z" fill="#676765"></path><path id="Vector_158" d="M32.584 19.2896L40.3902 16.1543H40.4883L32.584 19.328V19.2896Z" fill="#666664"></path><path id="Vector_159" d="M32.584 19.2496L40.2939 16.1543H40.3902L32.584 19.2896V19.2496Z" fill="#656563"></path><path id="Vector_160" d="M32.584 19.2112L40.1975 16.1543H40.2939L32.584 19.2496V19.2112Z" fill="#646462"></path><path id="Vector_161" d="M32.584 19.1729L40.1012 16.1543H40.1975L32.584 19.2112V19.1729Z" fill="#636361"></path><path id="Vector_162" d="M32.584 19.1346L40.0048 16.1543H40.1012L32.584 19.1729V19.1346Z" fill="#626260"></path><path id="Vector_163" d="M32.584 19.0945L39.9085 16.1543H40.0048L32.584 19.1346V19.0945Z" fill="#61615F"></path><path id="Vector_164" d="M32.584 19.0562L39.8121 16.1543H39.9085L32.584 19.0945V19.0562Z" fill="#60605E"></path><path id="Vector_165" d="M32.584 19.0179L39.7158 16.1543H39.8121L32.584 19.0562V19.0179Z" fill="#5F5F5D"></path><path id="Vector_166" d="M32.584 18.9796L39.6177 16.1543H39.7158L32.584 19.0179V18.9796Z" fill="#5E5E5C"></path><path id="Vector_167" d="M32.584 18.9395L39.5213 16.1543H39.6177L32.584 18.9796V18.9395Z" fill="#5D5D5B"></path><path id="Vector_168" d="M32.584 18.9012L39.425 16.1543H39.5213L32.584 18.9395V18.9012Z" fill="#5C5C5A"></path><path id="Vector_169" d="M32.584 18.8629L39.3286 16.1543H39.425L32.584 18.9012V18.8629Z" fill="#5B5B59"></path><path id="Vector_170" d="M32.584 18.8246L39.2322 16.1543H39.3286L32.584 18.8629V18.8246Z" fill="#5A5A58"></path><path id="Vector_171" d="M32.584 18.7845L39.1359 16.1543H39.2322L32.584 18.8246V18.7845Z" fill="#595957"></path><path id="Vector_172" d="M32.584 18.7462L39.0395 16.1543H39.1359L32.584 18.7845V18.7462Z" fill="#585856"></path><path id="Vector_173" d="M32.584 18.7079L38.9414 16.1543H39.0395L32.584 18.7462V18.7079Z" fill="#575755"></path><path id="Vector_174" d="M32.584 18.6695L38.8451 16.1543H38.9414L32.584 18.7079V18.6695Z" fill="#565654"></path><path id="Vector_175" d="M32.584 18.6295L38.7487 16.1543H38.8451L32.584 18.6695V18.6295Z" fill="#555553"></path><path id="Vector_176" d="M32.584 18.5911L38.6524 16.1543H38.7487L32.584 18.6295V18.5911Z" fill="#545452"></path><path id="Vector_177" d="M32.584 18.5528L38.556 16.1543H38.6524L32.584 18.5911V18.5528Z" fill="#535351"></path><path id="Vector_178" d="M32.584 18.5145L38.4597 16.1543H38.556L32.584 18.5528V18.5145Z" fill="#525250"></path><path id="Vector_179" d="M32.584 18.4744L38.3633 16.1543H38.4597L32.584 18.5145V18.4744Z" fill="#51514F"></path><path id="Vector_180" d="M32.584 18.4361L38.2652 16.1543H38.3633L32.584 18.4744V18.4361Z" fill="#50504E"></path><path id="Vector_181" d="M32.584 18.3978L38.1689 16.1543H38.2652L32.584 18.4361V18.3978Z" fill="#4F4F4D"></path><path id="Vector_182" d="M32.584 18.3595L38.0725 16.1543H38.1689L32.584 18.3978V18.3595Z" fill="#4E4E4C"></path><path id="Vector_183" d="M32.584 18.3194L37.9762 16.1543H38.0725L32.584 18.3595V18.3194Z" fill="#4D4D4B"></path><path id="Vector_184" d="M32.584 18.2811L37.8798 16.1543H37.9762L32.584 18.3194V18.2811Z" fill="#4C4C4A"></path><path id="Vector_185" d="M32.584 18.2428L37.7835 16.1543H37.8798L32.584 18.2811V18.2428Z" fill="#4B4B49"></path><path id="Vector_186" d="M32.584 18.2045L37.6871 16.1543H37.7835L32.584 18.2428V18.2045Z" fill="#4A4A48"></path><path id="Vector_187" d="M32.584 18.1644L37.5908 16.1543H37.6871L32.584 18.2045V18.1644Z" fill="#494947"></path><path id="Vector_188" d="M32.584 18.1261L37.4927 16.1543H37.5908L32.584 18.1644V18.1261Z" fill="#484846"></path><path id="Vector_189" d="M32.584 18.0878L37.3963 16.1543H37.4927L32.584 18.1261V18.0878Z" fill="#474745"></path><path id="Vector_190" d="M32.584 18.0494L37.3 16.1543H37.3963L32.584 18.0878V18.0494Z" fill="#464644"></path><path id="Vector_191" d="M32.584 18.0094L37.2036 16.1543H37.3L32.584 18.0494V18.0094Z" fill="#454543"></path><path id="Vector_192" d="M32.584 17.9711L37.1073 16.1543H37.2036L32.584 18.0094V17.9711Z" fill="#444442"></path><path id="Vector_193" d="M32.584 17.9327L37.0109 16.1543H37.1073L32.584 17.971V17.9327Z" fill="#434341"></path><path id="Vector_194" d="M32.584 17.8944L36.9146 16.1543H37.0109L32.584 17.9327V17.8944Z" fill="#424240"></path><path id="Vector_195" d="M32.584 17.8543L36.8182 16.1543H36.9146L32.584 17.8944V17.8543Z" fill="#41413F"></path><path id="Vector_196" d="M32.584 17.816L36.7219 16.1543H36.8182L32.584 17.8543V17.816Z" fill="#40403E"></path><path id="Vector_197" d="M32.584 17.7777L36.6237 16.1543H36.7218L32.584 17.816V17.7777Z" fill="#3F3F3D"></path><path id="Vector_198" d="M32.584 17.7376L36.5274 16.1543H36.6237L32.584 17.7777V17.7376Z" fill="#3E3E3C"></path><path id="Vector_199" d="M32.584 17.6993L36.431 16.1543H36.5274L32.584 17.7376V17.6993Z" fill="#3D3D3B"></path><path id="Vector_200" d="M32.584 17.661L36.3347 16.1543H36.431L32.584 17.6993V17.661Z" fill="#3C3C3A"></path><path id="Vector_201" d="M32.584 17.6227L36.2383 16.1543H36.3347L32.584 17.661V17.6227Z" fill="#3B3B39"></path><path id="Vector_202" d="M32.584 17.5826L36.142 16.1543H36.2383L32.584 17.6227V17.5826Z" fill="#3A3A38"></path><path id="Vector_203" d="M32.584 17.5443L36.0456 16.1543H36.142L32.584 17.5826V17.5443Z" fill="#393937"></path><path id="Vector_204" d="M32.584 17.506L35.9475 16.1543H36.0456L32.584 17.5443V17.506Z" fill="#383836"></path><path id="Vector_205" d="M32.584 17.4677L35.8512 16.1543H35.9475L32.584 17.506V17.4677Z" fill="#373735"></path><path id="Vector_206" d="M32.584 17.4276L35.7548 16.1543H35.8512L32.584 17.4677V17.4276Z" fill="#363634"></path><path id="Vector_207" d="M32.584 17.3893L35.6585 16.1543H35.7548L32.584 17.4276V17.3893Z" fill="#353533"></path><path id="Vector_208" d="M32.584 17.3509L35.5621 16.1543H35.6585L32.584 17.3893V17.3509Z" fill="#343432"></path><path id="Vector_209" d="M32.584 17.3126L35.4658 16.1543H35.5621L32.584 17.3509V17.3126Z" fill="#333331"></path><path id="Vector_210" d="M32.584 17.2726L35.3694 16.1543H35.4658L32.584 17.3126V17.2726Z" fill="#323230"></path><path id="Vector_211" d="M32.584 17.2342L35.2713 16.1543H35.3694L32.584 17.2726V17.2342Z" fill="#31312F"></path><path id="Vector_212" d="M32.584 17.1959L35.175 16.1543H35.2713L32.584 17.2342V17.1959Z" fill="#30302E"></path><path id="Vector_213" d="M32.584 17.1576L35.0786 16.1543H35.175L32.584 17.1959V17.1576Z" fill="#2F2F2D"></path><path id="Vector_214" d="M32.584 17.1175L34.9823 16.1543H35.0786L32.584 17.1576V17.1175Z" fill="#2E2E2C"></path><path id="Vector_215" d="M32.584 17.0792L34.8859 16.1543H34.9823L32.584 17.1175V17.0792Z" fill="#2D2D2B"></path><path id="Vector_216" d="M32.584 17.0409L34.7896 16.1543H34.8859L32.584 17.0792V17.0409Z" fill="#2C2C2A"></path><path id="Vector_217" d="M32.584 17.0026L34.6932 16.1543H34.7896L32.584 17.0409V17.0026Z" fill="#2B2B29"></path><path id="Vector_218" d="M32.584 16.9625L34.5969 16.1543H34.6932L32.584 17.0026V16.9625Z" fill="#2A2A28"></path><path id="Vector_219" d="M32.584 16.9242L34.4988 16.1543H34.5969L32.584 16.9625V16.9242Z" fill="#292927"></path><path id="Vector_220" d="M32.584 16.8859L34.4024 16.1543H34.4988L32.584 16.9242V16.8859Z" fill="#282826"></path><path id="Vector_221" d="M32.584 16.8458L34.306 16.1543H34.4024L32.584 16.8859V16.8458Z" fill="#272725"></path><path id="Vector_222" d="M32.584 16.8075L34.2097 16.1543H34.306L32.584 16.8458V16.8075Z" fill="#262624"></path><path id="Vector_223" d="M32.584 16.7692L34.1133 16.1543H34.2097L32.584 16.8075V16.7692Z" fill="#252523"></path><path id="Vector_224" d="M32.584 16.7308L34.017 16.1543H34.1133L32.584 16.7692V16.7308Z" fill="#242422"></path><path id="Vector_225" d="M32.584 16.6908L33.9206 16.1543H34.017L32.584 16.7308V16.6908Z" fill="#232321"></path><path id="Vector_226" d="M32.584 16.6525L33.8243 16.1543H33.9206L32.584 16.6908V16.6525Z" fill="#222220"></path><path id="Vector_227" d="M32.584 16.6141L33.7262 16.1543H33.8243L32.584 16.6525V16.6141Z" fill="#21211F"></path><path id="Vector_228" d="M32.584 16.5758L33.6298 16.1543H33.7262L32.584 16.6141V16.5758Z" fill="#20201E"></path><path id="Vector_229" d="M32.584 16.537L33.5366 16.1543H33.6333L32.584 16.5772V16.537Z" fill="#1F1F1D"></path><path id="Vector_230" d="M32.584 16.4986L33.4399 16.1543H33.5366L32.584 16.537V16.4986Z" fill="#1E1E1C"></path><path id="Vector_231" d="M32.584 16.4593L33.3411 16.1543H33.4375L32.584 16.4976V16.4593Z" fill="#1D1D1B"></path><path id="Vector_232" d="M33.3411 16.1543L32.584 16.4593V16.1543H33.3411Z" fill="#1D1D1B"></path></g></g></g></g><path id="Vector_233" d="M74.5547 14.3815H70.7444L70.1137 16.1983H68.0991L71.5398 6.67383H73.7734L77.2122 16.1983H75.1836L74.5547 14.3815ZM74.0291 12.8539L72.6487 8.8825L71.2647 12.8609L74.0291 12.8539Z" fill="white"></path><path id="Vector_234" d="M79.9117 14.6293H83.2963V16.197H77.7324V14.652L81.0504 10.2102H77.7464V8.64258H83.256V10.1824L79.9117 14.6293Z" fill="white"></path><path id="Vector_235" d="M91.4343 12.9881H85.8862C85.904 13.4736 86.1106 13.9332 86.4626 14.2701C86.8022 14.5795 87.2494 14.7457 87.7099 14.7335C88.0265 14.7523 88.3414 14.6751 88.6129 14.5122C88.8844 14.3492 89.0998 14.1081 89.2305 13.8207H91.2994C91.0849 14.539 90.6401 15.1678 90.0328 15.6114C89.3696 16.0906 88.5643 16.3358 87.7449 16.3081C87.058 16.3191 86.38 16.1522 85.7776 15.8239C85.2038 15.5068 84.7347 15.0313 84.4269 14.4548C84.0924 13.826 83.9248 13.1228 83.9399 12.4116C83.927 11.6979 84.0945 10.9924 84.4269 10.3597C84.7306 9.78488 85.1971 9.31128 85.7688 8.99755C86.3788 8.67134 87.063 8.50696 87.7554 8.52028C88.4268 8.51026 89.0898 8.66967 89.6825 8.98361C90.2446 9.28363 90.7067 9.74002 91.0121 10.297C91.3354 10.8981 91.4982 11.5716 91.4851 12.2531C91.4887 12.4991 91.4717 12.7449 91.4343 12.9881ZM89.5073 11.7079C89.5111 11.4843 89.4652 11.2627 89.3728 11.0588C89.2805 10.8549 89.1439 10.6739 88.973 10.5286C88.6175 10.2307 88.1641 10.0732 87.6994 10.0862C87.2598 10.075 86.8321 10.2286 86.5011 10.5164C86.1627 10.8278 85.9508 11.2517 85.9055 11.7079H89.5073Z" fill="white"></path><path id="Vector_236" d="M95.4299 8.88181C95.8457 8.64739 96.3167 8.52715 96.7946 8.53344V10.5366H96.2866C95.684 10.5366 95.2355 10.6794 94.9236 10.9598C94.6118 11.2403 94.4647 11.7315 94.4647 12.4317V16.1976H92.5464V8.64317H94.4647V9.81544C94.7019 9.42811 95.034 9.10689 95.4299 8.88181Z" fill="white"></path><path id="Vector_237" d="M100.679 8.85955C101.138 8.62394 101.649 8.50431 102.166 8.51118C102.783 8.50487 103.39 8.67018 103.918 8.98845C104.453 9.31548 104.885 9.78493 105.165 10.3436C105.481 10.9761 105.639 11.6754 105.624 12.3816C105.637 13.0916 105.48 13.7945 105.165 14.4317C104.885 14.9975 104.453 15.4754 103.918 15.813C103.393 16.1394 102.785 16.3099 102.166 16.3042C101.65 16.3154 101.14 16.2012 100.679 15.9715C100.274 15.7645 99.9246 15.4663 99.6572 15.1006V16.1962H97.7407V6.10742H99.6678V9.75138C99.9248 9.37509 100.272 9.06855 100.679 8.85955ZM103.392 11.2111C103.221 10.8918 102.962 10.6273 102.646 10.4481C102.344 10.2753 102.001 10.1857 101.653 10.1886C101.308 10.188 100.97 10.2801 100.673 10.4551C100.361 10.6388 100.105 10.9046 99.934 11.2232C99.7486 11.5912 99.6521 11.997 99.6521 12.4086C99.6521 12.8201 99.7486 13.226 99.934 13.5939C100.105 13.9136 100.36 14.1805 100.673 14.3655C100.97 14.5392 101.308 14.6306 101.653 14.6303C102.002 14.6347 102.346 14.5424 102.646 14.3638C102.962 14.1764 103.22 13.9065 103.392 13.5835C103.587 13.2142 103.684 12.8018 103.674 12.3851C103.683 11.9762 103.586 11.5719 103.392 11.2111Z" fill="white"></path><path id="Vector_238" d="M106.652 10.3594C106.932 9.79827 107.365 9.32639 107.901 8.99729C108.429 8.67902 109.036 8.51372 109.653 8.52002C110.17 8.51082 110.682 8.63059 111.14 8.86839C111.541 9.07529 111.89 9.36871 112.162 9.72713V8.64195H114.089V16.1964H112.162V15.0868C111.896 15.4564 111.546 15.7579 111.14 15.9664C110.678 16.2053 110.162 16.325 109.641 16.3148C109.022 16.3216 108.413 16.1511 107.889 15.8236C107.354 15.4855 106.922 15.0077 106.642 14.4423C106.327 13.8049 106.17 13.102 106.184 12.3922C106.174 11.6871 106.334 10.9898 106.652 10.3594ZM111.894 11.2303C111.725 10.9116 111.469 10.6471 111.154 10.4674C110.851 10.2916 110.505 10.1996 110.154 10.2009C109.802 10.1977 109.455 10.2907 109.152 10.4697C108.849 10.6488 108.601 10.9071 108.436 11.2164C108.24 11.5785 108.143 11.9849 108.154 12.3956C108.145 12.809 108.242 13.2177 108.436 13.5836C108.605 13.9069 108.861 14.1775 109.175 14.3657C109.47 14.5451 109.809 14.6398 110.154 14.6392C110.505 14.6402 110.85 14.5488 111.154 14.3744C111.468 14.1938 111.725 13.9287 111.894 13.6097C112.086 13.2424 112.181 12.8323 112.169 12.4183C112.181 12.0037 112.086 11.593 111.894 11.2251V11.2303Z" fill="white"></path><path id="Vector_239" d="M115.767 7.4243C115.661 7.32036 115.576 7.19635 115.518 7.05952C115.46 6.9227 115.431 6.77579 115.431 6.6274C115.431 6.47901 115.46 6.3321 115.518 6.19527C115.576 6.05845 115.661 5.93444 115.767 5.8305C115.998 5.624 116.298 5.50977 116.609 5.50977C116.92 5.50977 117.219 5.624 117.451 5.8305C117.557 5.93444 117.642 6.05845 117.699 6.19527C117.757 6.3321 117.787 6.47901 117.787 6.6274C117.787 6.77579 117.757 6.9227 117.699 7.05952C117.642 7.19635 117.557 7.32036 117.451 7.4243C117.219 7.6308 116.92 7.74503 116.609 7.74503C116.298 7.74503 115.998 7.6308 115.767 7.4243ZM117.554 8.64359V16.198H115.627V8.64359H117.554Z" fill="white"></path><path id="Vector_240" d="M121.021 17.4317C121.021 18.2678 120.813 18.8699 120.397 19.238C119.982 19.6061 119.386 19.7902 118.61 19.7902H117.761V18.1685H118.307C118.528 18.19 118.748 18.1278 118.924 17.9943C118.989 17.9188 119.038 17.8309 119.068 17.736C119.099 17.6411 119.109 17.5412 119.099 17.4421V8.64404H121.017L121.021 17.4317ZM119.218 7.42474C119.112 7.32056 119.028 7.19648 118.97 7.05968C118.913 6.92289 118.883 6.7761 118.883 6.62784C118.883 6.47958 118.913 6.3328 118.97 6.196C119.028 6.05921 119.112 5.93512 119.218 5.83094C119.333 5.72408 119.467 5.64076 119.614 5.58576C119.761 5.53076 119.918 5.50516 120.075 5.51044C120.229 5.50559 120.382 5.53145 120.526 5.58649C120.67 5.64154 120.801 5.72466 120.912 5.83094C121.122 6.04363 121.24 6.32978 121.24 6.62784C121.24 6.92591 121.122 7.21206 120.912 7.42474C120.802 7.53135 120.67 7.61468 120.526 7.66975C120.383 7.72481 120.229 7.75049 120.075 7.74524C119.918 7.75091 119.761 7.72549 119.614 7.67047C119.467 7.61545 119.333 7.53192 119.218 7.42474Z" fill="white"></path><path id="Vector_241" d="M122.534 10.3594C122.814 9.7985 123.246 9.32664 123.782 8.99729C124.312 8.67745 124.922 8.51209 125.542 8.52002C126.06 8.51082 126.571 8.63059 127.03 8.86839C127.428 9.07321 127.776 9.36356 128.048 9.71842V8.64195H129.975V16.1964H128.048V15.0868C127.782 15.4564 127.432 15.7579 127.026 15.9664C126.563 16.2053 126.048 16.325 125.527 16.3148C124.907 16.3216 124.299 16.1511 123.775 15.8236C123.24 15.4855 122.808 15.0077 122.527 14.4423C122.213 13.8049 122.056 13.102 122.07 12.3922C122.058 11.6873 122.218 10.9901 122.534 10.3594ZM127.776 11.2303C127.607 10.9116 127.351 10.6471 127.037 10.4674C126.733 10.2916 126.388 10.1996 126.036 10.2009C125.684 10.1977 125.337 10.2907 125.034 10.4697C124.731 10.6488 124.483 10.9071 124.318 11.2164C124.122 11.5785 124.025 11.9849 124.036 12.3956C124.027 12.809 124.124 13.2177 124.318 13.5836C124.487 13.9069 124.743 14.1775 125.057 14.3657C125.352 14.5451 125.691 14.6398 126.036 14.6392C126.387 14.6402 126.733 14.5488 127.037 14.3744C127.351 14.1938 127.607 13.9287 127.776 13.6097C127.967 13.2416 128.061 12.8308 128.048 12.4166C128.061 12.0029 127.967 11.5928 127.776 11.2251V11.2303Z" fill="white"></path><path id="Vector_242" d="M137.917 9.38475C138.474 9.9526 138.753 10.7451 138.753 11.7624V16.1971H136.826V12.0167C136.826 11.4175 136.675 10.9576 136.374 10.6337C136.216 10.471 136.025 10.3438 135.813 10.2603C135.602 10.1768 135.375 10.139 135.148 10.1494C134.916 10.1376 134.685 10.1746 134.468 10.258C134.252 10.3415 134.056 10.4695 133.893 10.6337C133.587 10.9576 133.434 11.4175 133.434 12.0167V16.1971H131.507V8.64273H133.434V9.5781C133.694 9.24741 134.03 8.98342 134.414 8.8082C134.824 8.61945 135.271 8.52423 135.722 8.52951C136.627 8.53183 137.359 8.81691 137.917 9.38475Z" fill="white"></path><path id="Vector_243" d="M149.015 14.3815H145.216L144.576 16.1983H142.562L146.002 6.67383H148.236L151.675 16.1983H149.646L149.015 14.3815ZM148.49 12.8539L147.111 8.8825L145.727 12.8609L148.49 12.8539Z" fill="white"></path><path id="Vector_244" d="M155.504 8.8818C155.919 8.64752 156.39 8.52728 156.867 8.53343V10.5366H156.361C155.758 10.5366 155.31 10.6794 154.998 10.9598C154.686 11.2403 154.539 11.7315 154.539 12.4317V16.1976H152.612V8.64316H154.539V9.81543C154.776 9.42809 155.108 9.10688 155.504 8.8818Z" fill="white"></path><path id="Vector_245" d="M160.047 10.2105V13.8684C160.038 13.9683 160.049 14.069 160.081 14.1641C160.113 14.2592 160.165 14.3466 160.233 14.4206C160.412 14.5528 160.634 14.6148 160.857 14.5948H161.746V16.1973H160.541C158.924 16.1973 158.115 15.4158 158.115 13.8528V10.2105H157.211V8.64287H158.115V6.77734H160.042V8.64287H161.741V10.2105H160.047Z" fill="white"></path><path id="Vector_246" d="M162.918 7.42388C162.812 7.31995 162.727 7.19594 162.67 7.05911C162.612 6.92228 162.582 6.77538 162.582 6.62698C162.582 6.47859 162.612 6.33169 162.67 6.19486C162.727 6.05803 162.812 5.93402 162.918 5.83009C163.15 5.62382 163.45 5.50977 163.761 5.50977C164.072 5.50977 164.372 5.62382 164.604 5.83009C164.71 5.93426 164.794 6.05835 164.852 6.19515C164.909 6.33194 164.939 6.47873 164.939 6.62698C164.939 6.77524 164.909 6.92203 164.852 7.05882C164.794 7.19562 164.71 7.3197 164.604 7.42388C164.372 7.63015 164.072 7.7442 163.761 7.7442C163.45 7.7442 163.15 7.63015 162.918 7.42388ZM164.705 8.64318V16.1976H162.778V8.64318H164.705Z" fill="white"></path><path id="Vector_247" d="M169.741 10.2109H168.412V16.1977H166.467V10.2109H165.604V8.64326H166.467V8.26179C166.467 7.3328 166.732 6.65174 167.261 6.2186C167.79 5.78546 168.589 5.58108 169.659 5.60547V7.2132C169.195 7.20449 168.869 7.28113 168.687 7.44486C168.505 7.6086 168.412 7.90297 168.412 8.32972V8.64326H169.741V10.2109Z" fill="white"></path><path id="Vector_248" d="M170.77 7.42388C170.663 7.31995 170.579 7.19594 170.521 7.05911C170.463 6.92228 170.434 6.77538 170.434 6.62698C170.434 6.47859 170.463 6.33169 170.521 6.19486C170.579 6.05803 170.663 5.93402 170.77 5.83009C171.002 5.62382 171.302 5.50977 171.613 5.50977C171.924 5.50977 172.224 5.62382 172.455 5.83009C172.561 5.93426 172.646 6.05835 172.703 6.19515C172.761 6.33194 172.79 6.47873 172.79 6.62698C172.79 6.77524 172.761 6.92203 172.703 7.05882C172.646 7.19562 172.561 7.3197 172.455 7.42388C172.224 7.63015 171.924 7.7442 171.613 7.7442C171.302 7.7442 171.002 7.63015 170.77 7.42388ZM172.557 8.64318V16.1976H170.63V8.64318H172.557Z" fill="white"></path><path id="Vector_249" d="M174.093 10.3667C174.397 9.79585 174.858 9.32324 175.423 9.00453C176.016 8.67391 176.688 8.50675 177.368 8.52029C178.309 8.52029 179.088 8.75254 179.705 9.21704C180.337 9.70883 180.776 10.4053 180.945 11.1853H178.876C178.778 10.8763 178.584 10.6065 178.321 10.4154C178.036 10.2224 177.698 10.1247 177.354 10.1367C177.105 10.1263 176.858 10.1746 176.631 10.2775C176.405 10.3804 176.207 10.5351 176.052 10.729C175.733 11.1238 175.574 11.6847 175.574 12.4116C175.574 13.1385 175.733 13.6953 176.052 14.082C176.207 14.2755 176.405 14.4299 176.632 14.5325C176.858 14.6351 177.105 14.6831 177.354 14.6725C178.129 14.6725 178.637 14.3276 178.876 13.6379H180.954C180.773 14.4091 180.333 15.096 179.706 15.5853C179.085 16.0683 178.308 16.3093 177.376 16.3081C176.697 16.3208 176.025 16.1537 175.432 15.8239C174.867 15.5058 174.406 15.0338 174.102 14.4635C173.769 13.8331 173.6 13.1291 173.613 12.4168C173.597 11.7041 173.762 10.9988 174.093 10.3667Z" fill="white"></path><path id="Vector_250" d="M182.143 7.42388C182.036 7.3197 181.952 7.19562 181.895 7.05882C181.837 6.92203 181.808 6.77524 181.808 6.62698C181.808 6.47873 181.837 6.33194 181.895 6.19515C181.952 6.05835 182.036 5.93426 182.143 5.83009C182.374 5.62382 182.674 5.50977 182.985 5.50977C183.296 5.50977 183.596 5.62382 183.828 5.83009C183.934 5.93402 184.019 6.05803 184.077 6.19486C184.134 6.33169 184.164 6.47859 184.164 6.62698C184.164 6.77538 184.134 6.92228 184.077 7.05911C184.019 7.19594 183.934 7.31995 183.828 7.42388C183.596 7.63015 183.296 7.7442 182.985 7.7442C182.674 7.7442 182.374 7.63015 182.143 7.42388ZM183.931 8.64318V16.1976H182.004V8.64318H183.931Z" fill="white"></path><path id="Vector_251" d="M185.445 10.3594C185.724 9.79811 186.157 9.32612 186.693 8.99728C187.22 8.67901 187.827 8.5137 188.444 8.52001C188.962 8.51095 189.473 8.63071 189.932 8.86838C190.332 9.07528 190.681 9.36869 190.953 9.72711V8.64194H192.88V16.1964H190.953V15.0868C190.688 15.4564 190.337 15.7579 189.932 15.9664C189.468 16.2055 188.952 16.3252 188.43 16.3148C187.811 16.3217 187.203 16.1512 186.679 15.8236C186.143 15.486 185.711 15.008 185.431 14.4423C185.12 13.8036 184.966 13.1001 184.983 12.3904C184.971 11.6863 185.129 10.9897 185.445 10.3594ZM190.687 11.2303C190.518 10.9116 190.262 10.647 189.947 10.4674C189.644 10.2918 189.298 10.1998 188.947 10.2009C188.602 10.194 188.261 10.2795 187.961 10.4482C187.651 10.6285 187.397 10.89 187.227 11.2042C187.032 11.5664 186.935 11.9728 186.947 12.3834C186.937 12.7978 187.033 13.2077 187.227 13.5749C187.397 13.8975 187.653 14.1678 187.966 14.357C188.261 14.5363 188.601 14.631 188.947 14.6304C189.298 14.6313 189.643 14.54 189.947 14.3657C190.261 14.185 190.518 13.92 190.687 13.601C190.878 13.2334 190.973 12.8234 190.962 12.4096C190.972 11.998 190.877 11.5906 190.687 11.2251V11.2303Z" fill="white"></path><path id="Vector_252" d="M196.347 6.10742V16.1962H194.429V6.10742H196.347Z" fill="white"></path><path id="Vector_253" d="M70.6082 22.5781V32.0886H68.6899V22.5781H70.6082Z" fill="white"></path><path id="Vector_254" d="M78.5566 25.2816C79.1136 25.8495 79.3922 26.642 79.3922 27.6592V32.0888H77.4739V27.9188C77.4739 27.3196 77.3215 26.8597 77.0219 26.5358C76.8638 26.3731 76.6727 26.2458 76.4612 26.1624C76.2498 26.0789 76.0229 26.0411 75.7956 26.0515C75.564 26.0394 75.3324 26.0763 75.1162 26.1598C74.9 26.2433 74.7041 26.3714 74.5413 26.5358C74.2347 26.8597 74.0823 27.3196 74.0823 27.9188V32.0888H72.1641V24.5396H74.0911V25.4802C74.351 25.1495 74.6868 24.8855 75.0704 24.7103C75.4801 24.521 75.9272 24.4252 76.379 24.4299C77.2725 24.4299 77.9983 24.7138 78.5566 25.2816Z" fill="white"></path><path id="Vector_255" d="M83.1056 26.1068V29.7647C83.0962 29.8644 83.1077 29.9649 83.1394 30.0599C83.171 30.155 83.2222 30.2425 83.2895 30.3169C83.4688 30.4491 83.6908 30.5111 83.9132 30.4911H84.8049V32.0988H83.5978C81.9815 32.0988 81.1733 31.3173 81.1733 29.7543V26.1068H80.2676V24.5391H81.1733V22.6719H83.1003V24.5391H84.7996V26.1068H83.1056Z" fill="white"></path><path id="Vector_256" d="M92.8478 28.8858H87.298C87.3155 29.3705 87.5215 29.8294 87.8726 30.1661C88.2118 30.4761 88.6593 30.6424 89.1199 30.6294C89.4363 30.6473 89.7509 30.57 90.0224 30.4075C90.294 30.245 90.51 30.0048 90.6423 29.7184H92.7094C92.4981 30.4364 92.0556 31.0654 91.4499 31.5091C90.7866 31.9883 89.9814 32.2335 89.1619 32.2058C88.475 32.2168 87.7971 32.0499 87.1946 31.7216C86.6196 31.4043 86.1489 30.929 85.8387 30.3525C85.5049 29.7234 85.3373 29.0204 85.3517 28.3093C85.3355 27.5965 85.4994 26.891 85.8282 26.2574C86.1319 25.682 86.5992 25.2083 87.1718 24.8953C87.7781 24.584 88.45 24.4204 89.1322 24.418C89.8145 24.4156 90.4876 24.5744 91.096 24.8813C91.6585 25.1809 92.1207 25.6374 92.4256 26.1947C92.749 26.7957 92.9119 27.4692 92.8986 28.1508C92.9021 28.3968 92.8851 28.6426 92.8478 28.8858ZM90.9208 27.6056C90.9257 27.3827 90.8812 27.1615 90.7903 26.9577C90.6995 26.7539 90.5646 26.5724 90.3952 26.4263C90.039 26.1284 89.5852 25.971 89.1199 25.9839C88.68 25.971 88.2517 26.1248 87.9216 26.4142C87.5836 26.7258 87.3718 27.1495 87.326 27.6056H90.9208Z" fill="white"></path><path id="Vector_257" d="M95.8763 22.0039V32.0875H93.9492V22.0039H95.8763Z" fill="white"></path><path id="Vector_258" d="M99.3436 22.0039V32.0875H97.4253V22.0039H99.3436Z" fill="white"></path><path id="Vector_259" d="M101.022 23.3204C100.915 23.2164 100.831 23.0924 100.773 22.9556C100.715 22.8188 100.686 22.6719 100.686 22.5235C100.686 22.3751 100.715 22.2282 100.773 22.0913C100.831 21.9545 100.915 21.8305 101.022 21.7266C101.254 21.5203 101.554 21.4062 101.865 21.4062C102.176 21.4062 102.476 21.5203 102.707 21.7266C102.813 21.8307 102.898 21.9548 102.955 22.0916C103.013 22.2284 103.042 22.3752 103.042 22.5235C103.042 22.6717 103.013 22.8185 102.955 22.9553C102.898 23.0921 102.813 23.2162 102.707 23.3204C102.476 23.5266 102.176 23.6407 101.865 23.6407C101.554 23.6407 101.254 23.5266 101.022 23.3204ZM102.809 24.5397V32.0889H100.894V24.5397H102.809Z" fill="white"></path><path id="Vector_260" d="M108.826 24.7493C109.231 24.9527 109.578 25.2518 109.839 25.6203V24.5438H111.766V32.147C111.777 32.7964 111.632 33.439 111.342 34.0212C111.056 34.5725 110.612 35.0272 110.067 35.3276C109.436 35.6659 108.728 35.833 108.012 35.8119C106.932 35.8119 106.048 35.5622 105.359 35.0629C105.025 34.8283 104.747 34.5238 104.545 34.1708C104.342 33.8177 104.22 33.4248 104.187 33.0197H106.097C106.2 33.3671 106.433 33.6619 106.749 33.8436C107.117 34.056 107.537 34.1616 107.963 34.1484C108.21 34.159 108.458 34.1207 108.691 34.0354C108.923 33.9502 109.137 33.8199 109.319 33.652C109.669 33.321 109.844 32.8194 109.844 32.147V30.9747C109.579 31.3456 109.229 31.6493 108.824 31.8613C108.366 32.1004 107.855 32.2203 107.337 32.2097C106.718 32.215 106.11 32.0446 105.585 31.7185C105.046 31.382 104.612 30.9032 104.331 30.3355C104.015 29.6985 103.858 28.9954 103.872 28.2853C103.858 27.582 104.015 26.8857 104.331 26.256C104.61 25.6952 105.042 25.2234 105.577 24.8939C106.108 24.5745 106.718 24.4092 107.339 24.4166C107.854 24.4064 108.365 24.5206 108.826 24.7493ZM109.566 27.12C109.395 26.8028 109.139 26.5387 108.826 26.3571C108.522 26.1828 108.177 26.0915 107.826 26.0923C107.473 26.0888 107.126 26.1816 106.823 26.3607C106.519 26.5398 106.271 26.7982 106.106 27.1078C105.911 27.4694 105.814 27.8753 105.825 28.2853C105.816 28.7002 105.912 29.1108 106.106 29.4785C106.276 29.8011 106.532 30.0715 106.845 30.2606C107.14 30.4402 107.48 30.5349 107.826 30.534C108.177 30.5349 108.522 30.4436 108.826 30.2693C109.139 30.0875 109.395 29.8227 109.566 29.5046C109.745 29.1326 109.839 28.7251 109.839 28.3123C109.839 27.8995 109.745 27.492 109.566 27.12Z" fill="white"></path><path id="Vector_261" d="M120.308 28.8859H114.758C114.776 29.3707 114.983 29.8296 115.334 30.1661C115.673 30.4765 116.121 30.6428 116.581 30.6295C116.898 30.6487 117.213 30.5719 117.484 30.4092C117.756 30.2465 117.971 30.0056 118.102 29.7185H120.164C119.951 30.4358 119.509 31.0645 118.904 31.5091C118.241 31.9887 117.435 32.234 116.615 32.2058C115.928 32.2166 115.251 32.0497 114.649 31.7216C114.073 31.4049 113.602 30.9295 113.291 30.3525C112.959 29.7249 112.792 29.0237 112.806 28.3145C112.79 27.5997 112.955 26.8923 113.286 26.2574C113.59 25.6826 114.056 25.209 114.628 24.8953C115.235 24.584 115.907 24.4204 116.589 24.418C117.272 24.4156 117.945 24.5744 118.554 24.8813C119.116 25.1814 119.578 25.6377 119.884 26.1947C120.207 26.7959 120.369 27.4694 120.355 28.1508C120.36 28.3967 120.344 28.6426 120.308 28.8859ZM118.381 27.6056C118.386 27.3827 118.341 27.1615 118.25 26.9577C118.159 26.7539 118.024 26.5725 117.855 26.4264C117.5 26.1284 117.046 25.971 116.581 25.9839C116.141 25.9711 115.712 26.1248 115.381 26.4142C115.044 26.7262 114.832 27.1497 114.786 27.6056H118.381Z" fill="white"></path><path id="Vector_262" d="M127.818 25.2816C128.375 25.8495 128.654 26.642 128.654 27.6593V32.0888H126.727V27.9188C126.727 27.3196 126.576 26.8598 126.275 26.5358C126.117 26.3732 125.926 26.2459 125.714 26.1624C125.503 26.0789 125.276 26.0411 125.049 26.0515C124.817 26.0398 124.585 26.0768 124.369 26.1603C124.153 26.2438 123.957 26.3717 123.794 26.5358C123.488 26.8598 123.335 27.3196 123.335 27.9188V32.0888H121.408V24.5396H123.335V25.4802C123.595 25.1489 123.932 24.8848 124.316 24.7103C124.725 24.5208 125.172 24.425 125.623 24.4299C126.531 24.4299 127.262 24.7138 127.818 25.2816Z" fill="white"></path><path id="Vector_263" d="M130.12 26.2631C130.424 25.6922 130.886 25.2191 131.45 24.8992C132.044 24.5702 132.715 24.4037 133.395 24.4167C134.337 24.4167 135.117 24.649 135.733 25.1135C136.365 25.6057 136.803 26.302 136.972 27.0818H134.903C134.808 26.7749 134.615 26.5068 134.355 26.3171C134.071 26.1233 133.733 26.025 133.389 26.0367C133.139 26.0248 132.889 26.0725 132.661 26.1758C132.433 26.2791 132.233 26.435 132.077 26.6306C131.757 27.0254 131.597 27.5863 131.597 28.3133C131.597 29.0402 131.757 29.5964 132.077 29.982C132.232 30.1758 132.43 30.3305 132.657 30.4334C132.883 30.5363 133.13 30.5846 133.379 30.5742C134.154 30.5742 134.661 30.2293 134.899 29.5395H136.968C136.787 30.3108 136.347 30.9976 135.721 31.4869C135.101 31.97 134.324 32.2109 133.391 32.2098C132.711 32.2222 132.04 32.0551 131.447 31.7255C130.882 31.4063 130.421 30.9338 130.117 30.3634C129.802 29.7253 129.639 29.024 129.639 28.3133C129.639 27.6025 129.802 26.9013 130.117 26.2631H130.12Z" fill="white"></path><path id="Vector_264" d="M145.041 28.8859H139.493C139.511 29.3707 139.717 29.8296 140.069 30.1661C140.408 30.4765 140.856 30.6428 141.316 30.6295C141.633 30.6487 141.948 30.5719 142.219 30.4092C142.491 30.2465 142.706 30.0056 142.837 29.7185H144.906C144.691 30.4367 144.246 31.0655 143.639 31.5091C142.975 31.9887 142.17 32.234 141.349 32.2058C140.663 32.2166 139.986 32.0497 139.384 31.7216C138.809 31.4048 138.338 30.9294 138.028 30.3525C137.693 29.7237 137.526 29.0205 137.541 28.3093C137.53 27.5951 137.699 26.8896 138.033 26.2574C138.337 25.6826 138.803 25.209 139.375 24.8953C139.982 24.584 140.654 24.4204 141.336 24.418C142.019 24.4156 142.692 24.5744 143.301 24.8813C143.863 25.1814 144.325 25.6377 144.631 26.1947C144.954 26.7958 145.117 27.4693 145.104 28.1508C145.103 28.3971 145.082 28.643 145.041 28.8859ZM143.114 27.6056C143.117 27.382 143.072 27.1604 142.979 26.9565C142.887 26.7527 142.75 26.5716 142.579 26.4264C142.224 26.1284 141.77 25.971 141.306 25.9839C140.865 25.9711 140.436 26.1248 140.106 26.4142C139.768 26.7262 139.556 27.1497 139.51 27.6056H143.114Z" fill="white"></path><path id="Vector_265" d="M150.997 30.575H154.15V32.0886H149.07V22.5781H150.997V30.575Z" fill="white"></path><path id="Vector_266" d="M154.984 26.2562C155.263 25.6954 155.694 25.2235 156.229 24.8941C156.761 24.5747 157.371 24.4094 157.992 24.4168C158.508 24.4053 159.019 24.522 159.479 24.7565C159.879 24.9639 160.227 25.2572 160.499 25.6152V24.5387H162.426V32.0879H160.499V30.9836C160.233 31.3501 159.884 31.6486 159.479 31.8545C159.016 32.0931 158.5 32.2129 157.978 32.2029C157.359 32.2097 156.75 32.0392 156.226 31.7117C155.691 31.3728 155.26 30.8944 154.98 30.3286C154.664 29.6917 154.507 28.9886 154.521 28.2785C154.51 27.5772 154.668 26.8834 154.984 26.2562ZM160.225 27.1271C160.055 26.8099 159.799 26.5458 159.486 26.3642C159.182 26.1899 158.837 26.0986 158.486 26.0994C158.133 26.0959 157.786 26.1887 157.483 26.3678C157.179 26.5469 156.931 26.8053 156.766 27.1149C156.571 27.4765 156.474 27.8824 156.485 28.2924C156.475 28.7073 156.572 29.1179 156.766 29.4856C156.936 29.8082 157.192 30.0786 157.505 30.2677C157.8 30.4473 158.14 30.542 158.486 30.5412C158.837 30.542 159.182 30.4507 159.486 30.2764C159.799 30.0946 160.055 29.8298 160.225 29.5117C160.405 29.1397 160.499 28.7322 160.499 28.3194C160.499 27.9066 160.405 27.4991 160.225 27.1271Z" fill="white"></path><path id="Vector_267" d="M166.905 24.756C167.366 24.5234 167.876 24.4068 168.393 24.4164C169.013 24.4084 169.623 24.5738 170.153 24.8936C170.688 25.2207 171.12 25.6901 171.401 26.2488C171.717 26.8807 171.874 27.5794 171.86 28.285C171.873 28.995 171.716 29.698 171.401 30.3352C171.12 30.9014 170.689 31.3799 170.153 31.7182C169.626 32.0462 169.015 32.2167 168.393 32.2094C167.877 32.2211 167.366 32.1069 166.905 31.8767C166.501 31.6702 166.151 31.3718 165.884 31.0058V32.084H163.96V22.0039H165.887V25.6426C166.147 25.2674 166.497 24.9626 166.905 24.756ZM169.619 27.1075C169.448 26.7915 169.191 26.5296 168.878 26.3516C168.576 26.1787 168.233 26.0892 167.885 26.092C167.54 26.0917 167.202 26.1831 166.905 26.3568C166.592 26.5407 166.336 26.8072 166.166 27.1267C165.981 27.4946 165.884 27.9005 165.884 28.312C165.884 28.7236 165.981 29.1294 166.166 29.4974C166.336 29.8174 166.592 30.0844 166.905 30.269C167.202 30.4427 167.54 30.5341 167.885 30.5338C168.235 30.536 168.579 30.4413 168.878 30.2603C169.19 30.0726 169.446 29.8049 169.619 29.4852C169.813 29.1152 169.91 28.7022 169.899 28.285C169.909 27.8751 169.813 27.4694 169.619 27.1075Z" fill="white"></path></g></g></g></g><defs><linearGradient id="paint0_linear_3195_4103" x1="32.4561" y1="-11.2929" x2="-15.4614" y2="11.3347" gradientUnits="userSpaceOnUse"><stop stop-color="#FFBBAC"></stop><stop offset="1" stop-color="#696DD4"></stop></linearGradient></defs></svg>