<svg width="244" height="69" viewBox="0 0 244 69" fill="none" xmlns="http://www.w3.org/2000/svg"><g id="rinn_logo_az 1"><path id="Vector" d="M62.0002 42.0003C61.4875 41.7912 60.9175 41.7699 60.3906 41.94C59.8637 42.1102 59.4138 42.4609 59.1202 42.9303L54.0002 40.8603V40.7803C54.0045 40.5887 53.9643 40.3986 53.8828 40.2251C53.8012 40.0516 53.6805 39.8993 53.5302 39.7803C54.8773 35.7682 54.7675 31.4096 53.2202 27.4703L59.0802 25.0003C59.3758 25.4795 59.8285 25.8411 60.3611 26.0235C60.8936 26.2059 61.473 26.1977 62.0002 26.0003C62.409 25.8204 62.7585 25.5287 63.0087 25.1587C63.2588 24.7887 63.3993 24.3556 63.414 23.9093C63.4287 23.4629 63.317 23.0215 63.0918 22.6359C62.8666 22.2503 62.5369 21.9361 62.1409 21.7297C61.7449 21.5232 61.2987 21.4329 60.8535 21.469C60.4084 21.5051 59.9826 21.6663 59.6251 21.9339C59.2675 22.2016 58.9929 22.5647 58.8328 22.9817C58.6727 23.3986 58.6337 23.8522 58.7202 24.2903L52.8802 26.7103C51.8461 24.3259 50.3034 22.1963 48.3602 20.4703C48.4238 20.3471 48.4516 20.2085 48.4402 20.0703C48.4469 19.8422 48.3889 19.6169 48.273 19.4203C48.1571 19.2238 47.988 19.064 47.7851 18.9594C47.5823 18.8549 47.354 18.8098 47.1267 18.8294C46.8993 18.8491 46.6821 18.9326 46.5002 19.0703C45.5811 18.4549 44.6185 17.9068 43.6202 17.4303L46.0002 11.6103C46.5379 11.7371 47.1032 11.6651 47.5921 11.4079C48.0809 11.1506 48.4603 10.7253 48.6602 10.2103C48.8847 9.63543 48.877 8.9958 48.6388 8.42643C48.4007 7.85706 47.9507 7.40246 47.3837 7.15856C46.8168 6.91466 46.1773 6.90053 45.6001 7.11915C45.023 7.33777 44.5533 7.77205 44.2902 8.33035C44.0825 8.84474 44.0618 9.41571 44.2317 9.9438C44.4017 10.4719 44.7515 10.9236 45.2202 11.2203L42.8002 17.0003C39.0328 15.5157 34.8738 15.35 31.0002 16.5303C30.8332 16.27 30.6041 16.0551 30.3336 15.905C30.0631 15.7549 29.7596 15.6743 29.4502 15.6703H29.1402L27.2602 11.1503C27.7154 10.8438 28.0544 10.3933 28.2231 9.87111C28.3917 9.3489 28.3801 8.7852 28.1902 8.27035C28.0741 7.97284 27.8992 7.70175 27.6761 7.47323C27.453 7.24471 27.1862 7.06344 26.8916 6.9402C26.5969 6.81696 26.2805 6.75428 25.9611 6.75589C25.6418 6.7575 25.326 6.82338 25.0326 6.94959C24.7393 7.0758 24.4743 7.25977 24.2535 7.49053C24.0327 7.7213 23.8606 7.99413 23.7475 8.2928C23.6344 8.59146 23.5825 8.90984 23.595 9.22897C23.6075 9.54809 23.6841 9.86144 23.8202 10.1503C24.0287 10.6583 24.4099 11.0764 24.8966 11.3307C25.3833 11.585 25.9441 11.6592 26.4802 11.5403L28.3602 16.0603C28.1168 16.2245 27.9181 16.4467 27.7819 16.7068C27.6458 16.9669 27.5765 17.2568 27.5802 17.5503C27.5663 17.6867 27.5979 17.8239 27.6702 17.9403C24.0963 19.8332 21.2744 22.8878 19.6702 26.6003L13.8902 24.1903C14.0197 23.6538 13.9502 23.0885 13.6946 22.5994C13.439 22.1102 13.0146 21.7304 12.5002 21.5303C11.922 21.281 11.2685 21.2716 10.6834 21.5042C10.0983 21.7367 9.62952 22.1922 9.38022 22.7703C9.13091 23.3485 9.1215 24.002 9.35404 24.5872C9.58659 25.1723 10.042 25.641 10.6202 25.8903C11.126 26.0978 11.6884 26.1225 12.2104 25.96C12.7324 25.7976 13.1815 25.4582 13.4802 25.0003L19.2602 27.4203C18.5058 29.3526 18.0799 31.3975 18.0002 33.4703C17.8091 33.5358 17.6448 33.6623 17.5328 33.8304C17.4207 33.9985 17.3671 34.1988 17.3802 34.4003C17.3792 34.5995 17.4377 34.7944 17.5482 34.9601C17.6586 35.1257 17.816 35.2547 18.0002 35.3303C18.1656 37.1141 18.5622 38.8689 19.1802 40.5503L13.4102 43.0003C13.1163 42.5301 12.6704 42.1744 12.1465 41.9925C11.6227 41.8106 11.0523 41.8134 10.5302 42.0003C10.2439 42.1238 9.98477 42.3024 9.76752 42.526C9.55027 42.7496 9.37919 43.0138 9.26404 43.3035C9.1489 43.5933 9.09195 43.9028 9.09644 44.2145C9.10093 44.5263 9.16678 44.8341 9.29022 45.1203C9.41366 45.4066 9.59228 45.6658 9.81588 45.883C10.0395 46.1003 10.3037 46.2714 10.5934 46.3865C10.8831 46.5017 11.1927 46.5586 11.5044 46.5541C11.8161 46.5496 12.1239 46.4838 12.4102 46.3603C12.9199 46.1571 13.3402 45.7783 13.5951 45.2923C13.85 44.8063 13.9228 44.2453 13.8002 43.7103L19.5802 41.2903C20.2143 42.7536 21.0563 44.1177 22.0802 45.3403C21.986 45.5338 21.9349 45.7453 21.9302 45.9603C21.9275 46.1244 21.9577 46.2873 22.019 46.4395C22.0802 46.5917 22.1713 46.7302 22.2868 46.8466C22.4024 46.9631 22.5401 47.0553 22.6918 47.1178C22.8435 47.1802 23.0062 47.2117 23.1702 47.2103C23.3618 47.191 23.5482 47.1367 23.7202 47.0503C25.2544 48.5187 27.0437 49.6946 29.0002 50.5203L26.5302 56.3003C25.9939 56.1741 25.43 56.2464 24.9429 56.5038C24.4557 56.7611 24.0782 57.1862 23.8802 57.7003C23.7568 57.9866 23.6909 58.2944 23.6864 58.6062C23.6819 58.9179 23.7389 59.2274 23.854 59.5172C23.9692 59.8069 24.1403 60.0711 24.3575 60.2947C24.5748 60.5183 24.8339 60.6969 25.1202 60.8203C25.4065 60.9438 25.7143 61.0096 26.026 61.0141C26.3377 61.0186 26.6473 60.9617 26.937 60.8465C27.2267 60.7314 27.491 60.5603 27.7146 60.343C27.9382 60.1258 28.1168 59.8666 28.2402 59.5803C28.4514 59.0679 28.4738 58.4972 28.3035 57.9698C28.1332 57.4423 27.7812 56.9925 27.3102 56.7003L29.7202 50.9203C31.8066 51.7523 34.0341 52.1733 36.2802 52.1603C38.5207 52.1479 40.7402 51.7277 42.8302 50.9203L45.2502 56.7703C44.7923 57.0744 44.451 57.5248 44.2821 58.0479C44.1132 58.571 44.1266 59.1359 44.3202 59.6503C44.4437 59.9366 44.6223 60.1958 44.8459 60.413C45.0695 60.6303 45.3337 60.8014 45.6234 60.9165C45.9131 61.0317 46.2227 61.0886 46.5344 61.0841C46.8461 61.0796 47.1539 61.0138 47.4402 60.8903C47.7265 60.7669 47.9857 60.5883 48.2029 60.3647C48.4202 60.1411 48.5912 59.8769 48.7064 59.5872C48.8215 59.2974 48.8785 58.9879 48.874 58.6762C48.8695 58.3644 48.8037 58.0566 48.6802 57.7703C48.4746 57.2551 48.0913 56.8306 47.5996 56.5738C47.1079 56.317 46.5405 56.2448 46.0002 56.3703L43.5902 50.5203C47.4903 48.8242 50.6742 45.8172 52.5902 42.0203H52.7402C52.924 42.0285 53.1067 41.9897 53.2712 41.9074C53.4357 41.8251 53.5765 41.7022 53.6802 41.5503L58.7502 43.6603C58.6207 44.1969 58.6902 44.7621 58.9458 45.2513C59.2014 45.7405 59.6258 46.1203 60.1402 46.3203C60.724 46.5375 61.3677 46.5299 61.9462 46.2988C62.5247 46.0678 62.9966 45.6299 63.2702 45.0703C63.506 44.4945 63.5048 43.8489 63.2669 43.274C63.0291 42.6991 62.5738 42.2413 62.0002 42.0003ZM29.7402 19.4103L33.1702 27.5103L29.6702 29.4603C29.4461 29.2352 29.1858 29.0493 28.9002 28.9103L29.7402 19.4103ZM35.5202 34.7803L34.9002 36.3303L34.0002 35.4003L35.5202 34.7803ZM33.2602 34.7803L30.2602 31.9003L35.2602 34.0003L33.2602 34.7803ZM36.2602 35.0903L38.0502 39.3803L35.5202 37.0003L36.2602 35.0903ZM37.5802 40.0903C37.4308 40.3782 37.3487 40.6962 37.3402 41.0203V41.3303L32.8902 43.3303L35.1502 37.7903L37.5802 40.0903ZM39.2202 39.0903H39.0002L37.2102 34.7303L41.2102 36.3603L39.8202 39.1803C39.6397 39.121 39.4473 39.1072 39.2602 39.1403L39.2202 39.0903ZM37.3802 34.0003L43.5402 31.4303L41.3502 35.6403L37.3802 34.0003ZM43.7802 32.9103L43.3202 36.5003L42.1402 36.0003L43.7802 32.9103ZM44.7802 31.8103C44.8702 31.8103 44.8702 31.8103 44.9402 31.7203L51.4002 39.7203L44.2302 36.7203L44.7802 31.8103ZM43.2302 30.6503L37.0702 33.2203L40.0702 25.8903H40.4602C40.6751 25.8845 40.8864 25.8333 41.0802 25.7403L43.5002 29.7403C43.3232 30.0207 43.2168 30.3398 43.1902 30.6703L43.2302 30.6503ZM39.3102 25.5803L36.3102 32.9103L34.2002 27.9103L39.0002 25.3603C39.1102 25.4303 39.1802 25.5003 39.3302 25.5803H39.3102ZM35.5002 33.2203L30.1402 31.0003V30.6903C30.1539 30.5316 30.1227 30.3722 30.0502 30.2303L33.4802 28.3503L35.5002 33.2203ZM28.3202 32.5203H28.4102L29.5002 36.3503L26.5002 37.5903L28.2102 32.5203H28.3202ZM29.1902 32.2903C29.2702 32.2903 29.2702 32.2103 29.3402 32.2103L32.4602 35.2103L30.2902 36.0003L29.1902 32.2903ZM33.0902 35.7903L34.5702 37.1903L32.2202 42.8103L30.5202 36.8803L33.0902 35.7903ZM37.6702 42.1103C37.8374 42.35 38.0605 42.5453 38.3201 42.6795C38.5797 42.8136 38.868 42.8826 39.1602 42.8803H39.4702L41.4702 47.7103L33.1202 44.1203L37.6702 42.1103ZM40.2602 42.5003C40.6488 42.2133 40.9247 41.7994 41.0402 41.3303H42.7402L42.0402 46.8003L40.2602 42.5003ZM41.0402 40.5003C40.9341 40.1143 40.7188 39.7671 40.4202 39.5003L41.8102 36.6903L43.2102 37.2403L42.8102 40.4303L41.0402 40.5003ZM44.0402 37.6203L50.6702 40.3503L43.6702 40.4403L44.0402 37.6203ZM45.5302 31.2203C45.6588 31.041 45.7126 30.8186 45.6802 30.6003V30.5203L49.1102 29.1203L51.6802 39.0203L45.5302 31.2203ZM45.3702 29.7403L45.1302 29.5003L47.1302 21.6203L48.8402 28.2403L45.3702 29.7403ZM46.3702 20.8403L44.2602 29.2603H44.1102L41.6902 25.2603C41.8833 25.0835 42.038 24.8689 42.1447 24.6298C42.2513 24.3907 42.3077 24.1322 42.3102 23.8703C42.3102 23.6303 42.2302 23.4703 42.2302 23.2503L46.3702 20.8403ZM38.4902 24.5203L33.8102 27.0903L30.4702 19.0903L30.7102 18.8503L38.4302 23.3703C38.3591 23.5688 38.3318 23.7803 38.3502 23.9903C38.4647 24.1645 38.5366 24.3632 38.5602 24.5703L38.4902 24.5203ZM28.8102 19.2903L28.0002 28.8603C27.748 28.8883 27.5055 28.973 27.2907 29.1081C27.076 29.2432 26.8946 29.4251 26.7602 29.6403L23.1702 28.1503L28.8102 19.2903ZM26.3902 30.2903V30.8403L19.6002 33.5303L22.7202 28.7003L26.3902 30.2903ZM19.4602 34.5103L26.6402 31.7003C26.7758 31.9259 26.9647 32.1147 27.1902 32.2503L25.3102 38.0303L24.5302 38.3403L19.3102 34.6703C19.5302 34.6203 19.5302 34.5503 19.5302 34.5503L19.4602 34.5103ZM26.0802 38.6303L29.6702 37.1503L31.4502 43.0003L26.0002 39.2103L26.0802 38.6303ZM31.0802 43.7903L24.3002 45.2703C24.2346 45.1352 24.1254 45.026 23.9902 44.9603L25.6302 39.9603L31.0802 43.7903ZM31.3002 44.6503L30.5902 46.5303L25.5902 45.9103L31.3002 44.6503ZM32.0802 45.0303C32.1943 45.0335 32.3079 45.0139 32.4143 44.9727C32.5208 44.9315 32.618 44.8695 32.7002 44.7903L39.3202 47.6703L31.4402 46.5903L32.0802 45.0303ZM42.7702 47.4503L43.5502 41.2903L51.3402 41.1403L42.7702 47.4503ZM52.6702 39.3403L49.9402 28.7703L52.4402 27.7703C53.9162 31.4813 54.026 35.5959 52.7502 39.3803L52.6702 39.3403ZM52.1302 27.0003L49.7202 28.0003L47.9202 21.2203C49.7618 22.7861 51.2048 24.7672 52.1302 27.0003ZM46.0002 19.6503C46.0002 19.7403 45.9202 19.8903 45.9202 19.9603V20.2003L41.7802 22.6203L41.4702 22.3103L43.1702 18.1003C44.1626 18.5219 45.1106 19.0411 46.0002 19.6503ZM36.2602 16.6503C38.3949 16.6582 40.51 17.0582 42.5002 17.8303L40.8302 22.0003H40.4402C39.8825 22.0088 39.3493 22.2307 38.9502 22.6203L31.2302 18.1003C31.3018 17.9264 31.3293 17.7375 31.3102 17.5503V17.3003C32.9425 16.8846 34.6163 16.6532 36.3002 16.6103L36.2602 16.6503ZM28.0602 18.7603C28.0602 18.8403 28.1502 18.8403 28.1502 18.9103L22.3702 27.8103L20.4602 27.0003C21.9917 23.4522 24.6864 20.5317 28.1002 18.7203L28.0602 18.7603ZM22.0002 28.4603L19.0702 33.0003C19.1498 31.205 19.5459 29.4379 20.2402 27.7803L22.0002 28.4603ZM19.0702 35.4003L23.8302 38.7403L20.1502 40.2303C19.5176 38.6937 19.1523 37.0601 19.0702 35.4003ZM24.6002 39.3003L25.0002 39.5403L23.2902 44.7603C23.1503 44.7397 23.0078 44.7718 22.8902 44.8503C21.9528 43.6695 21.1667 42.3762 20.5502 41.0003L24.6002 39.3003ZM24.4502 46.5603L30.3802 47.3303L29.3802 49.8303C27.5345 49.0815 25.858 47.9695 24.4502 46.5603ZM30.0502 50.1403L31.1402 47.4203L41.1402 48.6603C41.2047 48.8784 41.3358 49.0709 41.5151 49.2108C41.6944 49.3506 41.913 49.4309 42.1402 49.4403L42.3802 50.0603C38.434 51.6742 34.0171 51.7029 30.0502 50.1403ZM43.3202 49.8303L43.0702 49.2103C43.2703 49.0033 43.3846 48.7282 43.3902 48.4403V48.2003L51.6502 42.1103C49.8258 45.5512 46.8896 48.2724 43.3202 49.8303Z" fill="white"></path><path id="Vector_2" d="M29.6701 6.99949C29.8068 7.18774 29.9115 7.39721 29.9801 7.61949C30.0739 7.81354 30.1283 8.02427 30.1401 8.23949L34.9001 4.73949C35.3066 4.43828 35.7992 4.27569 36.3051 4.27569C36.8111 4.27569 37.3036 4.43828 37.7101 4.73949L42.4701 8.23949C42.5601 7.99949 42.5601 7.83949 42.6301 7.61949C42.7192 7.406 42.8228 7.19885 42.9401 6.99949C43.2919 6.40284 43.8049 5.91758 44.4201 5.59949L39.5901 1.99949C38.6624 1.23467 37.4975 0.816406 36.2951 0.816406C35.0928 0.816406 33.9279 1.23467 33.0001 1.99949L28.1401 5.60949C28.7781 5.90873 29.3112 6.39308 29.6701 6.99949Z" fill="white"></path><path id="Vector_3" d="M43 60.9998C42.8593 60.814 42.7542 60.6038 42.69 60.3798C42.5962 60.1857 42.5418 59.975 42.53 59.7598L37.77 63.2598C37.3635 63.561 36.8709 63.7236 36.365 63.7236C35.8591 63.7236 35.3665 63.561 34.96 63.2598L30.2 59.7598C30.11 59.9998 30.11 60.1598 30.04 60.3798C29.9509 60.5933 29.8473 60.8004 29.73 60.9998C29.3782 61.5964 28.8653 62.0817 28.25 62.3998L33.09 65.9998C34.02 66.7723 35.191 67.1953 36.4 67.1953C37.609 67.1953 38.78 66.7723 39.71 65.9998L44.54 62.4098C43.8804 62.1299 43.3368 61.6322 43 60.9998Z" fill="white"></path><path id="Vector_4" d="M12.51 19.5592L13.22 19.7992C13.426 19.8609 13.6145 19.9706 13.77 20.1192L14.63 14.2692C14.7006 13.7771 14.9287 13.3211 15.2803 12.9696C15.6318 12.618 16.0878 12.3898 16.58 12.3192L22.43 11.4592C22.34 11.2992 22.19 11.0592 22.12 10.8992C22.05 10.7392 21.96 10.4392 21.88 10.1992C21.7131 9.5388 21.7409 8.8442 21.96 8.19922L16 8.99922C14.8003 9.11851 13.6791 9.65017 12.8275 10.5036C11.9759 11.357 11.4467 12.4793 11.33 13.6792L10.46 19.6092C11.1312 19.4415 11.8313 19.4245 12.51 19.5592Z" fill="white"></path><path id="Vector_5" d="M60.0799 48.3508L59.3699 48.1108C59.1663 48.0485 58.9786 47.9427 58.8199 47.8008L57.9999 53.6508C57.9247 54.1484 57.6884 54.6077 57.3271 54.9581C56.9658 55.3085 56.4996 55.5308 55.9999 55.5908L50.1499 56.4608C50.2666 56.6363 50.3702 56.8201 50.4599 57.0108C50.5499 57.2508 50.6199 57.4708 50.7099 57.7208C50.8707 58.3824 50.8395 59.0762 50.6199 59.7208L56.5499 58.8608C57.75 58.74 58.8715 58.2081 59.7244 57.3552C60.5772 56.5023 61.1091 55.3809 61.2299 54.1808L62.0899 48.2508C61.4438 48.4784 60.7454 48.5132 60.0799 48.3508Z" fill="white"></path><path id="Vector_6" d="M9.9402 40.3109C10.1368 40.2257 10.3465 40.175 10.5602 40.1609L7.0602 35.4009C6.75899 34.9944 6.5964 34.5018 6.5964 33.9959C6.5964 33.4899 6.75899 32.9974 7.0602 32.5909L10.5602 27.8309C10.3202 27.7409 10.1702 27.7409 9.9402 27.6709C9.7102 27.6009 9.4802 27.4309 9.3202 27.3609C8.72557 27.0066 8.24092 26.4942 7.9202 25.8809L4.3402 30.7109C3.56396 31.6392 3.13867 32.8108 3.13867 34.0209C3.13867 35.2309 3.56396 36.4025 4.3402 37.3309L7.9202 42.1609C8.26496 41.565 8.74442 41.0582 9.3202 40.6809C9.49486 40.5104 9.70729 40.3837 9.9402 40.3109Z" fill="white"></path><path id="Vector_7" d="M68.2698 30.6503L64.6898 25.8203C64.3454 26.4191 63.866 26.9293 63.2898 27.3103C63.0982 27.4413 62.8896 27.5456 62.6698 27.6203C62.4733 27.7055 62.2635 27.7562 62.0498 27.7703L65.5498 32.5303C65.8518 32.9384 66.0149 33.4326 66.0149 33.9403C66.0149 34.448 65.8518 34.9423 65.5498 35.3503L62.0498 40.1103C62.2898 40.1903 62.4398 40.1903 62.6698 40.2603C62.8998 40.3303 63.1298 40.5003 63.2898 40.5703C63.8844 40.9246 64.3691 41.4369 64.6898 42.0503L68.2698 37.2303C69.0467 36.3101 69.4729 35.1446 69.4729 33.9403C69.4729 32.736 69.0467 31.5705 68.2698 30.6503Z" fill="white"></path><path id="Vector_8" d="M14.6801 53.6603L13.8201 47.8203C13.6701 47.9003 13.4301 48.0603 13.2701 48.1303L12.5601 48.3703C11.8984 48.5311 11.2046 48.4999 10.5601 48.2803L11.4201 54.2103C11.5386 55.4096 12.0685 56.5309 12.9197 57.3839C13.7709 58.2369 14.8911 58.7692 16.0901 58.8903L22.0301 59.7503C21.8519 59.0986 21.8212 58.4154 21.9401 57.7503C22.0301 57.5003 22.1001 57.2803 22.1801 57.0403C22.2398 56.8356 22.3459 56.6474 22.4901 56.4903L16.6501 55.6203C16.1436 55.5776 15.6683 55.3577 15.308 54.9992C14.9477 54.6407 14.7253 54.1666 14.6801 53.6603Z" fill="white"></path><path id="Vector_9" d="M58.0002 14.2706L58.8602 20.1206C59.0202 20.0306 59.2602 19.8706 59.4102 19.8006L60.1202 19.5606C60.7818 19.3993 61.4758 19.4305 62.1202 19.6506L61.2602 13.7206C61.1526 12.5151 60.6287 11.3846 59.7783 10.5233C58.928 9.66197 57.8043 9.12361 56.6002 9.00062L50.6602 8.14062C50.8431 8.79158 50.8739 9.47587 50.7502 10.1406C50.6602 10.3906 50.6002 10.6106 50.5102 10.8506C50.4504 11.0553 50.3443 11.2435 50.2002 11.4006L56.0502 12.2706C56.5523 12.3372 57.0176 12.5706 57.3712 12.9333C57.7248 13.296 57.9463 13.767 58.0002 14.2706Z" fill="white"></path><g id="YENI"><path id="Vector_10" d="M89.7001 22.6692H88.1601L87.4001 20.5092H84.0701L83.3501 22.6692H81.8101L85.0001 14.1992H86.5901L89.7001 22.6692ZM87.0001 19.3692L85.8501 15.9992C85.8035 15.8253 85.7701 15.6481 85.7501 15.4692C85.7285 15.6496 85.6883 15.8272 85.6301 15.9992L84.4701 19.3792L87.0001 19.3692Z" fill="white"></path><path id="Vector_11" d="M96.8903 14.8187L92.2503 21.4787H96.8403V22.6687H90.2803V21.9987L94.9403 15.3787H90.6503V14.2188H96.8903V14.8187Z" fill="white"></path><path id="Vector_12" d="M97.6503 17.839H104.08C104.039 17.1342 103.723 16.4737 103.2 15.999C102.647 15.5209 101.931 15.2738 101.2 15.309C100.346 15.2884 99.5062 15.5367 98.8003 16.019V14.719C99.5799 14.2889 100.46 14.0749 101.35 14.099C101.918 14.0652 102.486 14.151 103.018 14.3508C103.551 14.5506 104.035 14.86 104.44 15.259C104.828 15.6869 105.126 16.1875 105.318 16.7317C105.51 17.2758 105.593 17.8528 105.56 18.429C105.599 19.589 105.199 20.721 104.44 21.599C104.064 22.0175 103.6 22.3475 103.082 22.5653C102.563 22.7832 102.002 22.8835 101.44 22.859C100.899 22.8905 100.359 22.7927 99.863 22.5736C99.3673 22.3544 98.9311 22.0203 98.5903 21.599C97.8772 20.4809 97.5473 19.1611 97.6503 17.839ZM104.08 18.999H99.1703C99.1511 19.6899 99.3819 20.3646 99.8203 20.899C100.037 21.1345 100.302 21.32 100.597 21.4426C100.892 21.5652 101.211 21.622 101.53 21.609C101.859 21.6163 102.187 21.5572 102.493 21.4352C102.798 21.3132 103.077 21.1309 103.31 20.899C103.775 20.3713 104.047 19.7013 104.08 18.999Z" fill="white"></path><path id="Vector_13" d="M113.67 22.6692H112L110.66 20.4092C110.552 20.2217 110.431 20.0413 110.3 19.8692C110.192 19.7343 110.068 19.6133 109.93 19.5092C109.807 19.4275 109.676 19.3572 109.54 19.2992C109.381 19.2516 109.215 19.2313 109.05 19.2392H108.48V22.6692H107.09V14.1992H109.86C110.234 14.1983 110.607 14.2453 110.97 14.3392C111.289 14.4229 111.588 14.5691 111.85 14.7692C112.096 14.9578 112.294 15.2009 112.43 15.4792C112.575 15.7922 112.647 16.1342 112.64 16.4792C112.64 16.7585 112.592 17.0357 112.5 17.2992C112.421 17.5496 112.292 17.7811 112.12 17.9792C111.955 18.1765 111.759 18.3454 111.54 18.4792C111.296 18.6186 111.033 18.723 110.76 18.7892C110.906 18.8704 111.041 18.9713 111.16 19.0892C111.28 19.189 111.39 19.2995 111.49 19.4192C111.59 19.5192 111.69 19.6592 111.8 19.7892C111.91 19.9192 112 20.1092 112.12 20.2792L113.67 22.6692ZM108.53 15.3492V18.0992H109.71C109.915 18.0995 110.118 18.0622 110.31 17.9892C110.49 17.9305 110.654 17.8313 110.79 17.6992C110.932 17.5718 111.039 17.4099 111.1 17.2292C111.179 17.0391 111.22 16.8352 111.22 16.6292C111.23 16.4527 111.202 16.2759 111.136 16.1117C111.07 15.9475 110.969 15.7998 110.84 15.6792C110.526 15.4367 110.136 15.3159 109.74 15.3392H108.53V15.3492Z" fill="white"></path><path id="Vector_14" d="M114.66 22.6689V14.1989H117.35C118.057 14.1507 118.76 14.337 119.35 14.7289C119.575 14.8863 119.758 15.096 119.883 15.3399C120.009 15.5838 120.073 15.8546 120.07 16.1289C120.081 16.5832 119.936 17.0276 119.66 17.3889C119.368 17.7495 118.974 18.0143 118.53 18.1489C119.057 18.1839 119.554 18.4076 119.93 18.7789C120.283 19.1659 120.469 19.6757 120.45 20.1989C120.456 20.5394 120.382 20.8765 120.232 21.1825C120.083 21.4885 119.863 21.7546 119.59 21.9589C118.968 22.4221 118.206 22.6585 117.43 22.6289H114.71L114.66 22.6689ZM116.05 15.3389V17.7489H117C117.411 17.7664 117.815 17.6467 118.15 17.4089C118.294 17.2874 118.408 17.1334 118.481 16.9595C118.554 16.7856 118.584 16.5969 118.57 16.4089C118.57 15.6889 118.08 15.3289 117.12 15.3289L116.05 15.3389ZM116.05 18.8689V21.5489H117.24C117.675 21.5788 118.106 21.4471 118.45 21.1789C118.595 21.0573 118.709 20.9036 118.784 20.7299C118.859 20.5563 118.892 20.3675 118.88 20.1789C118.88 19.2989 118.28 18.8689 117.05 18.8689H116.05Z" fill="white"></path><path id="Vector_15" d="M128.9 22.6692H127.37L126.61 20.5092H123.28L122.55 22.6692H121L124.17 14.1992H125.76L128.9 22.6692ZM126.25 19.3692L125.07 15.9992C125.023 15.8253 124.99 15.6481 124.97 15.4692C124.948 15.6496 124.908 15.8272 124.85 15.9992L123.7 19.3792L126.25 19.3692Z" fill="white"></path><path id="Vector_16" d="M135.06 14.2192L132.28 19.5992V22.6692H130.89V19.6092L128.18 14.1992H129.78L131.44 17.8192C131.44 17.8692 131.52 18.0292 131.61 18.2992C131.659 18.1339 131.723 17.9733 131.8 17.8192L133.54 14.1992H135.04L135.06 14.2192Z" fill="white"></path><path id="Vector_17" d="M141.75 22.3198C141.008 22.6745 140.192 22.846 139.37 22.8198C138.817 22.8516 138.264 22.7655 137.747 22.5672C137.229 22.369 136.76 22.0631 136.37 21.6698C135.613 20.8354 135.218 19.7352 135.27 18.6098C135.244 18.0092 135.341 17.4095 135.554 16.8473C135.767 16.2851 136.092 15.7722 136.51 15.3398C136.923 14.9255 137.417 14.5999 137.96 14.3832C138.503 14.1665 139.085 14.0633 139.67 14.0798C140.352 14.0651 141.031 14.1805 141.67 14.4198V15.8198C141.101 15.4852 140.451 15.3124 139.79 15.3198C139.38 15.3067 138.971 15.3781 138.589 15.5294C138.207 15.6808 137.86 15.909 137.57 16.1998C137.279 16.5148 137.053 16.8851 136.907 17.2887C136.761 17.6924 136.698 18.1212 136.72 18.5498C136.697 18.9547 136.755 19.3602 136.893 19.7418C137.03 20.1234 137.244 20.4731 137.52 20.7698C137.79 21.0459 138.114 21.2623 138.472 21.4053C138.831 21.5482 139.215 21.6145 139.6 21.5998C140.331 21.6192 141.052 21.4208 141.67 21.0298V22.3198H141.75Z" fill="white"></path><path id="Vector_18" d="M150.31 22.6692H148.77L148 20.5092H144.67L144 22.6692H142.46L145.64 14.1992H147.23L150.31 22.6692ZM147.63 19.3692L146.46 15.9992C146.413 15.8253 146.38 15.6481 146.36 15.4692C146.338 15.6496 146.298 15.8272 146.24 15.9992L145.08 19.3792L147.63 19.3692Z" fill="white"></path><path id="Vector_19" d="M158.64 22.6692H157.1L153.1 16.4392C152.998 16.288 152.911 16.1272 152.84 15.9592C152.893 16.3401 152.913 16.7249 152.9 17.1092V22.6692H151.53V14.1992H153.17L157.07 20.2692C157.189 20.433 157.293 20.6071 157.38 20.7892C157.336 20.4109 157.319 20.0299 157.33 19.6492V14.1992H158.67V22.6692H158.64Z" fill="white"></path><path id="Vector_20" d="M170.61 22.6692H169L167.65 20.4092C167.542 20.2217 167.422 20.0413 167.29 19.8692C167.186 19.7344 167.065 19.6134 166.93 19.5092C166.803 19.4274 166.669 19.3571 166.53 19.2992C166.375 19.2509 166.212 19.2306 166.05 19.2392H165.48V22.6692H164.08V14.1992H166.86C167.235 14.1983 167.608 14.2453 167.97 14.3392C168.286 14.4231 168.582 14.5693 168.84 14.7692C169.089 14.9567 169.291 15.1998 169.43 15.4792C169.575 15.7922 169.647 16.1342 169.64 16.4792C169.64 16.7585 169.593 17.0357 169.5 17.2992C169.413 17.546 169.285 17.776 169.12 17.9792C168.954 18.179 168.754 18.3482 168.53 18.4792C168.29 18.62 168.031 18.7244 167.76 18.7892C167.904 18.8704 168.035 18.9714 168.15 19.0892C168.275 19.1837 168.386 19.2948 168.48 19.4192C168.594 19.5337 168.697 19.6575 168.79 19.7892C168.9 19.9292 169 20.1092 169.12 20.2792L170.61 22.6692ZM165.47 15.3492V18.0992H166.64C166.848 18.1003 167.055 18.063 167.25 17.9892C167.429 17.9281 167.593 17.8292 167.73 17.6992C167.872 17.5718 167.979 17.4099 168.04 17.2292C168.119 17.0391 168.16 16.8352 168.16 16.6292C168.171 16.4527 168.142 16.2759 168.076 16.1117C168.011 15.9475 167.91 15.7998 167.78 15.6792C167.467 15.4367 167.076 15.3159 166.68 15.3392H165.47V15.3492Z" fill="white"></path><path id="Vector_21" d="M176.34 22.6692H171.59V14.1992H176.15V15.3892H173V17.7892H175.91V18.9992H173V21.4992H176.35L176.34 22.6692Z" fill="white"></path><path id="Vector_22" d="M177.46 22.3396V20.8896C177.594 21.0197 177.749 21.1247 177.92 21.1996C178.103 21.2951 178.294 21.3754 178.49 21.4396C178.686 21.5056 178.887 21.5591 179.09 21.5996C179.277 21.6131 179.464 21.6131 179.65 21.5996C180.105 21.6294 180.56 21.5288 180.96 21.3096C181.1 21.213 181.212 21.0824 181.288 20.9302C181.363 20.778 181.398 20.6092 181.39 20.4396C181.394 20.2596 181.345 20.0824 181.25 19.9296C181.149 19.7679 181.012 19.6311 180.85 19.5296C180.661 19.3982 180.46 19.2843 180.25 19.1896L179.49 18.8396C179.2 18.6896 178.94 18.5296 178.68 18.3696C178.446 18.2271 178.231 18.0558 178.04 17.8596C177.846 17.6645 177.695 17.4314 177.595 17.1751C177.495 16.9187 177.449 16.6445 177.46 16.3696C177.452 16.0173 177.546 15.6702 177.73 15.3696C177.908 15.0752 178.151 14.8255 178.44 14.6396C178.75 14.4469 179.087 14.302 179.44 14.2096C179.815 14.1269 180.197 14.0833 180.58 14.0796C181.236 14.0433 181.893 14.142 182.51 14.3696V15.7496C181.965 15.3827 181.317 15.2005 180.66 15.2296C180.453 15.2317 180.245 15.2484 180.04 15.2796C179.849 15.3186 179.664 15.3825 179.49 15.4696C179.337 15.5612 179.201 15.6797 179.09 15.8196C179.002 15.9716 178.956 16.144 178.956 16.3196C178.956 16.4951 179.002 16.6676 179.09 16.8196C179.182 16.9671 179.301 17.0961 179.44 17.1996C179.613 17.3263 179.797 17.4368 179.99 17.5296C180.21 17.6296 180.45 17.7496 180.75 17.8696C181.05 17.9896 181.32 18.1796 181.57 18.3496C181.819 18.516 182.05 18.7069 182.26 18.9196C182.464 19.114 182.624 19.3491 182.73 19.6096C182.85 19.8764 182.909 20.167 182.9 20.4596C182.917 20.8369 182.827 21.2114 182.64 21.5396C182.469 21.8356 182.229 22.086 181.94 22.2696C181.631 22.4569 181.293 22.5921 180.94 22.6696C180.542 22.7516 180.136 22.7918 179.73 22.7896C179.59 22.7896 179.42 22.7896 179.21 22.7896L178.58 22.7096C178.366 22.6728 178.156 22.6193 177.95 22.5496C177.778 22.5018 177.613 22.4311 177.46 22.3396Z" fill="white"></path><path id="Vector_23" d="M185.82 19.5985V22.6685H184.42V14.1985H187C187.809 14.1461 188.61 14.3837 189.26 14.8685C189.533 15.1052 189.748 15.4014 189.888 15.7343C190.029 16.0672 190.091 16.4279 190.07 16.7885C190.084 17.163 190.016 17.536 189.871 17.8815C189.726 18.227 189.507 18.5366 189.23 18.7885C188.607 19.3336 187.796 19.6135 186.97 19.5685H185.83L185.82 19.5985ZM185.82 15.3685V18.4585H186.74C187.234 18.4887 187.723 18.3435 188.12 18.0485C188.277 17.8965 188.399 17.7124 188.479 17.5087C188.558 17.3051 188.593 17.0867 188.58 16.8685C188.58 15.8685 187.99 15.3685 186.84 15.3685H185.82Z" fill="white"></path><path id="Vector_24" d="M198 19.2497C198 21.6297 196.88 22.8197 194.62 22.8197C192.36 22.8197 191.39 21.6797 191.39 19.3897V14.2197H192.79V19.0997C192.79 20.7497 193.43 21.5797 194.72 21.5797C196.01 21.5797 196.58 20.7897 196.58 19.1797V14.1797H198V19.1797V19.2497Z" fill="white"></path><path id="Vector_25" d="M200 22.6693V14.1993H202.69C203.397 14.1496 204.1 14.336 204.69 14.7293C204.918 14.8843 205.104 15.0933 205.231 15.3376C205.358 15.5818 205.423 15.8538 205.42 16.1293C205.428 16.5849 205.279 17.0294 205 17.3893C204.714 17.7516 204.322 18.0169 203.88 18.1493C204.407 18.187 204.903 18.4102 205.28 18.7793C205.632 19.1663 205.819 19.6761 205.8 20.1993C205.804 20.5405 205.728 20.8779 205.577 21.1838C205.425 21.4898 205.204 21.7555 204.93 21.9593C204.311 22.4225 203.552 22.6591 202.78 22.6293H200V22.6693ZM201.4 15.3393V17.7493H202.31C202.724 17.7683 203.132 17.6486 203.47 17.4093C203.612 17.2868 203.724 17.1323 203.795 16.9585C203.866 16.7847 203.895 16.5965 203.88 16.4093C203.88 15.6893 203.4 15.3293 202.43 15.3293L201.4 15.3393ZM201.4 18.8693V21.5493H202.59C203.025 21.5792 203.456 21.4475 203.8 21.1793C203.945 21.0578 204.059 20.904 204.134 20.7304C204.208 20.5567 204.241 20.368 204.23 20.1793C204.23 19.2993 203.62 18.8693 202.4 18.8693H201.4Z" fill="white"></path><path id="Vector_26" d="M212 22.6692H207.31V14.1992H208.71V21.4792H212V22.6692Z" fill="white"></path><path id="Vector_27" d="M213.88 13.4192C213.693 13.4174 213.513 13.3501 213.37 13.2292C213.303 13.1689 213.249 13.0948 213.213 13.012C213.177 12.9292 213.159 12.8395 213.16 12.7492C213.159 12.6589 213.178 12.5694 213.214 12.4867C213.25 12.404 213.303 12.3298 213.37 12.2692C213.438 12.2041 213.518 12.1536 213.605 12.1209C213.693 12.0882 213.787 12.074 213.88 12.0792C214.071 12.0758 214.256 12.1435 214.4 12.2692C214.469 12.3285 214.523 12.4024 214.559 12.4855C214.596 12.5685 214.613 12.6586 214.61 12.7492C214.612 12.8395 214.594 12.9292 214.558 13.012C214.521 13.0948 214.468 13.1689 214.4 13.2292C214.331 13.295 214.25 13.3459 214.16 13.3786C214.071 13.4113 213.975 13.4251 213.88 13.4192ZM214.63 22.6692H213.18V14.1992H214.63V22.6692Z" fill="white"></path><path id="Vector_28" d="M223.11 22.6687H221.28L218.33 18.7987C218.258 18.7058 218.191 18.609 218.13 18.5087V22.6888H216.73V14.2188H218.13V18.2187C218.189 18.1168 218.256 18.0198 218.33 17.9288L221.18 14.2387H222.87L219.54 18.2387L223.11 22.6687Z" fill="white"></path><path id="Vector_29" d="M231.05 22.6692H229.51L228.75 20.5092H225.42L224.7 22.6692H223.16L226.34 14.1992H227.92L231.05 22.6692ZM228.37 19.3692L227.2 15.9992C227.154 15.8253 227.12 15.6481 227.1 15.4692C227.085 15.6488 227.052 15.8264 227 15.9992L225.84 19.3792L228.37 19.3692Z" fill="white"></path><path id="Vector_30" d="M231.82 22.3396V20.8896C231.959 21.0177 232.117 21.1224 232.29 21.1996C232.473 21.2951 232.664 21.3754 232.86 21.4396C233.056 21.5081 233.256 21.5616 233.46 21.5996C233.643 21.6126 233.827 21.6126 234.01 21.5996C234.465 21.6323 234.921 21.5315 235.32 21.3096C235.461 21.2141 235.576 21.0841 235.653 20.9318C235.73 20.7795 235.767 20.6101 235.76 20.4396C235.76 20.2601 235.711 20.0839 235.62 19.9296C235.513 19.7724 235.377 19.6367 235.22 19.5296C235.031 19.3981 234.83 19.2843 234.62 19.1896L233.86 18.8396C233.56 18.6896 233.31 18.5296 233.05 18.3696C232.814 18.2296 232.599 18.058 232.41 17.8596C232.23 17.6735 232.084 17.4568 231.98 17.2196C231.865 16.9513 231.811 16.6612 231.82 16.3696C231.816 16.0163 231.913 15.6693 232.1 15.3696C232.275 15.0729 232.518 14.8225 232.81 14.6396C233.12 14.4469 233.457 14.302 233.81 14.2096C234.181 14.1274 234.56 14.0839 234.94 14.0796C235.6 14.0434 236.26 14.142 236.88 14.3696V15.7496C236.334 15.3853 235.686 15.2033 235.03 15.2296C234.822 15.2313 234.615 15.248 234.41 15.2796C234.218 15.3157 234.033 15.3798 233.86 15.4696C233.703 15.5557 233.566 15.6751 233.46 15.8196C233.372 15.9716 233.326 16.144 233.326 16.3196C233.326 16.4951 233.372 16.6675 233.46 16.8196C233.548 16.967 233.663 17.096 233.8 17.1996C233.975 17.322 234.159 17.4322 234.35 17.5296L235.11 17.8696C235.41 18.0296 235.68 18.1796 235.94 18.3496C236.188 18.516 236.42 18.7069 236.63 18.9196C236.831 19.1161 236.99 19.3507 237.1 19.6096C237.22 19.8763 237.278 20.167 237.27 20.4596C237.281 20.8363 237.191 21.2093 237.01 21.5396C236.838 21.8382 236.594 22.0892 236.3 22.2696C235.991 22.4579 235.653 22.5931 235.3 22.6696C234.902 22.7516 234.496 22.7918 234.09 22.7896C233.95 22.7896 233.78 22.7896 233.57 22.7896L232.93 22.7096C232.72 22.6716 232.512 22.6181 232.31 22.5496C232.138 22.5007 231.974 22.4301 231.82 22.3396Z" fill="white"></path><path id="Vector_31" d="M240.22 22.6692H238.77V14.1992H240.22V22.6692Z" fill="white"></path><path id="Vector_32" d="M89.28 38.1888H87.64L86.3 35.9288C86.1942 35.7429 86.0738 35.5656 85.94 35.3988C85.8375 35.2562 85.7125 35.1312 85.57 35.0288C85.4487 34.9464 85.3177 34.8792 85.18 34.8288C85.0251 34.7783 84.8628 34.7546 84.7 34.7588H84.13V38.1888H82.73V29.7188H85.51C85.8811 29.7184 86.2508 29.7655 86.61 29.8588C86.9273 29.9466 87.2257 30.0924 87.49 30.2888C87.736 30.4797 87.9373 30.722 88.08 30.9988C88.2172 31.314 88.2854 31.655 88.28 31.9988C88.2798 32.2813 88.2325 32.5618 88.14 32.8288C88.0585 33.0728 87.9331 33.2998 87.77 33.4988C87.4142 33.9114 86.933 34.1959 86.4 34.3088C86.5476 34.384 86.6826 34.4818 86.8 34.5988C86.9173 34.7011 87.0276 34.8114 87.13 34.9288C87.24 35.0498 87.3435 35.1766 87.44 35.3088C87.54 35.4488 87.64 35.6188 87.77 35.7888L89.28 38.1888ZM84.14 30.8788V33.6188H85.32C85.5244 33.6222 85.7277 33.5883 85.92 33.5188C86.1007 33.4565 86.2648 33.3539 86.4 33.2188C86.542 33.0953 86.6489 32.9367 86.71 32.7588C86.789 32.5651 86.8297 32.3579 86.83 32.1488C86.8405 31.9737 86.8118 31.7985 86.7461 31.6359C86.6804 31.4733 86.5792 31.3273 86.45 31.2088C86.1406 30.9575 85.7477 30.8325 85.35 30.8588H84.14V30.8788Z" fill="white"></path><path id="Vector_33" d="M89.71 33.3594H96.15C96.1146 32.6416 95.7985 31.9664 95.27 31.4794C94.714 31.0058 93.9997 30.7594 93.27 30.7894C92.418 30.7654 91.5807 31.0142 90.88 31.4994V30.2094C91.6562 29.7699 92.5383 29.5519 93.43 29.5794C93.9975 29.5457 94.5659 29.6314 95.0982 29.8313C95.6305 30.0311 96.1149 30.3405 96.52 30.7394C96.9062 31.168 97.204 31.6687 97.3962 32.2127C97.5885 32.7567 97.6713 33.3333 97.64 33.9094C97.6766 35.0721 97.2771 36.2064 96.52 37.0894C96.1435 37.5074 95.6794 37.837 95.1608 38.0548C94.6422 38.2726 94.0819 38.3732 93.52 38.3494C92.9808 38.3777 92.4426 38.2784 91.9491 38.0594C91.4556 37.8405 91.0208 37.5082 90.68 37.0894C89.9453 35.991 89.6035 34.6766 89.71 33.3594ZM96.15 34.5294H91.23C91.2099 35.2222 91.4447 35.8983 91.89 36.4294C92.1041 36.6677 92.3688 36.8551 92.6646 36.978C92.9605 37.1008 93.2801 37.156 93.6 37.1394C93.9281 37.1501 94.2549 37.0926 94.5595 36.9703C94.8642 36.8481 95.1402 36.6639 95.37 36.4294C95.8531 35.9125 96.1305 35.2367 96.15 34.5294Z" fill="white"></path><path id="Vector_34" d="M102.68 38.3288C102.103 38.3347 101.532 38.2224 101 37.9988C100.516 37.799 100.08 37.4991 99.72 37.1188C99.3663 36.7246 99.0914 36.2663 98.91 35.7688C98.711 35.2105 98.6128 34.6214 98.62 34.0288C98.614 33.4036 98.712 32.7818 98.91 32.1888C99.0853 31.663 99.3679 31.1795 99.74 30.7688C100.103 30.3741 100.551 30.0665 101.05 29.8688C101.602 29.6589 102.189 29.5538 102.78 29.5588C103.335 29.5573 103.885 29.6626 104.4 29.8688C104.883 30.0736 105.317 30.3781 105.673 30.7624C106.03 31.1468 106.302 31.6022 106.47 32.0988C106.667 32.6507 106.765 33.2329 106.76 33.8188C106.774 34.5723 106.634 35.3207 106.35 36.0188C106.089 36.6131 105.684 37.1323 105.17 37.5288L107.62 39.3088H105.48L104 38.1588C103.79 38.2088 103.58 38.2588 103.37 38.2888C103.142 38.3229 102.911 38.3363 102.68 38.3288ZM102.75 30.8288C102.405 30.8296 102.064 30.9046 101.75 31.0488C101.429 31.1978 101.146 31.4164 100.92 31.6888C100.679 31.9838 100.499 32.3237 100.39 32.6888C100.137 33.5267 100.137 34.4208 100.39 35.2588C100.493 35.6241 100.67 35.9644 100.91 36.2588C101.128 36.5312 101.405 36.7502 101.72 36.8988C102.032 37.049 102.374 37.1243 102.72 37.1188C103.093 37.1288 103.465 37.0606 103.81 36.9188C104.126 36.7807 104.407 36.572 104.63 36.3088C104.878 36.02 105.056 35.6777 105.15 35.3088C105.278 34.8838 105.342 34.4424 105.34 33.9988C105.349 33.5429 105.292 33.0882 105.17 32.6488C105.063 32.2889 104.894 31.9505 104.67 31.6488C104.454 31.3801 104.176 31.1675 103.86 31.0288C103.505 30.8952 103.129 30.8274 102.75 30.8288Z" fill="white"></path><path id="Vector_35" d="M107.77 33.359H114.21C114.169 32.6424 113.854 31.9691 113.33 31.479C112.774 31.0053 112.06 30.7589 111.33 30.789C110.478 30.765 109.641 31.0137 108.94 31.499V30.209C109.716 29.7694 110.598 29.5514 111.49 29.579C112.057 29.5464 112.625 29.6328 113.158 29.8326C113.69 30.0323 114.174 30.341 114.58 30.739C114.966 31.1675 115.264 31.6682 115.456 32.2122C115.649 32.7562 115.731 33.3328 115.7 33.909C115.737 35.0716 115.337 36.2059 114.58 37.089C114.202 37.5053 113.738 37.8338 113.22 38.0515C112.701 38.2691 112.142 38.3707 111.58 38.349C111.041 38.3773 110.503 38.2779 110.009 38.059C109.516 37.84 109.081 37.5077 108.74 37.089C108.005 35.9906 107.664 34.6761 107.77 33.359ZM114.21 34.529H109.29C109.27 35.2217 109.505 35.8978 109.95 36.429C110.163 36.6659 110.426 36.8525 110.72 36.9753C111.014 37.0981 111.332 37.154 111.65 37.139C111.98 37.1492 112.308 37.0915 112.614 36.9693C112.92 36.8472 113.198 36.6632 113.43 36.429C113.913 35.912 114.191 35.2362 114.21 34.529Z" fill="white"></path><path id="Vector_36" d="M126.35 38.1883H125V32.7183C125 32.2783 125 31.7183 125.09 31.0883C125.039 31.3573 124.965 31.6215 124.87 31.8783L122.35 38.2083H121.35L118.82 31.9283C118.75 31.7383 118.68 31.4583 118.59 31.0883C118.59 31.4283 118.59 31.9783 118.59 32.7383V38.2083H117.29V29.7383H119.29L121.51 35.3783C121.647 35.7021 121.757 36.0366 121.84 36.3783C121.929 36.0345 122.049 35.6997 122.2 35.3783L124.46 29.7783H126.37V38.2083L126.35 38.1883Z" fill="white"></path><path id="Vector_37" d="M128 37.8589V36.4089C128.138 36.5402 128.297 36.6482 128.47 36.7289C128.652 36.8185 128.839 36.8986 129.03 36.9689C129.228 37.0377 129.433 37.0879 129.64 37.1189C129.821 37.1536 130.006 37.1704 130.19 37.1689C130.646 37.2016 131.101 37.1008 131.5 36.8789C131.654 36.7899 131.782 36.6615 131.87 36.5068C131.957 36.3521 132.003 36.1768 132 35.9989C132.005 35.8156 131.956 35.6349 131.86 35.4789C131.757 35.322 131.624 35.1863 131.47 35.0789C131.279 34.9454 131.074 34.8315 130.86 34.7389L130.11 34.3889C129.81 34.2389 129.55 34.0789 129.29 33.9289C129.059 33.7823 128.848 33.6076 128.66 33.4089C128.478 33.2245 128.332 33.0074 128.23 32.7689C128.102 32.5304 128.024 32.2685 128 31.9989C127.998 31.6459 128.095 31.2993 128.28 30.9989C128.454 30.7079 128.694 30.4614 128.98 30.2789C129.289 30.084 129.626 29.9389 129.98 29.8489C130.353 29.7581 130.736 29.7111 131.12 29.7089C131.776 29.6715 132.434 29.7702 133.05 29.9989V31.3789C132.506 31.0179 131.863 30.8361 131.21 30.8589C131.002 30.8586 130.794 30.8786 130.59 30.9189C130.396 30.9455 130.209 31.01 130.04 31.1089C129.881 31.1883 129.744 31.3049 129.64 31.4489C129.532 31.6007 129.476 31.7829 129.48 31.9689C129.475 32.1368 129.517 32.3028 129.6 32.4489C129.692 32.5965 129.81 32.7254 129.95 32.8289C130.12 32.9592 130.305 33.0699 130.5 33.1589L131.26 33.4989C131.545 33.6481 131.822 33.8117 132.09 33.9889C132.343 34.149 132.575 34.3405 132.78 34.5589C132.98 34.7542 133.137 34.9893 133.24 35.2489C133.364 35.5114 133.425 35.7988 133.42 36.0889C133.43 36.4687 133.341 36.8446 133.16 37.1789C132.979 37.4682 132.737 37.714 132.45 37.8989C132.142 38.0878 131.804 38.223 131.45 38.2989C131.052 38.3814 130.646 38.4216 130.24 38.4189C130.11 38.4189 129.93 38.4189 129.73 38.4189C129.53 38.4189 129.31 38.4189 129.09 38.3389C128.88 38.3009 128.672 38.2474 128.47 38.1789C128.3 38.094 128.141 37.9864 128 37.8589Z" fill="white"></path><path id="Vector_38" d="M142 38.1897H140.46L139.67 35.9997H136.34L135.61 38.1497H134.08L137.25 29.6797H138.84L142 38.1897ZM139.33 34.8997L138.15 31.5197C138.089 31.3498 138.039 31.1761 138 30.9997C137.979 31.1835 137.939 31.3645 137.88 31.5397L136.73 34.9197L139.33 34.8997Z" fill="white"></path><path id="Vector_39" d="M147.81 38.1887H143.11V29.7188H144.51V36.9988H147.79V38.1887H147.81Z" fill="white"></path><path id="Vector_40" d="M153.05 28.9998C152.86 28.9963 152.677 28.9294 152.53 28.8098C152.465 28.7463 152.413 28.67 152.379 28.5857C152.344 28.5014 152.328 28.4108 152.33 28.3198C152.327 28.2302 152.344 28.141 152.378 28.0582C152.413 27.9754 152.464 27.9009 152.53 27.8398C152.599 27.7739 152.68 27.723 152.77 27.6903C152.859 27.6576 152.955 27.6438 153.05 27.6498C153.241 27.6465 153.426 27.7142 153.57 27.8398C153.637 27.9001 153.689 27.9744 153.724 28.0574C153.758 28.1404 153.774 28.23 153.77 28.3198C153.772 28.4108 153.756 28.5014 153.721 28.5857C153.687 28.67 153.635 28.7463 153.57 28.8098C153.425 28.933 153.24 29.0004 153.05 28.9998ZM153.79 38.2398H152.34V29.7198H153.79V38.2398Z" fill="white"></path><path id="Vector_41" d="M163.05 38.1887H161.52L157.52 31.9587C157.42 31.8064 157.333 31.6459 157.26 31.4788C157.303 31.8639 157.319 32.2514 157.31 32.6388V38.1887H155.95V29.7188H157.59L161.49 35.7888C161.603 35.9566 161.706 36.1301 161.8 36.3088C161.761 35.9301 161.744 35.5494 161.75 35.1687V29.7188H163V38.1887H163.05Z" fill="white"></path><path id="Vector_42" d="M171.54 38.1883H169.71L166.71 34.3283C166.637 34.2324 166.57 34.1322 166.51 34.0283V38.2083H165.11V29.7383H166.51V33.7383C166.571 33.6379 166.638 33.5411 166.71 33.4483L169.56 29.7583H171.25L168 33.7883L171.54 38.1883Z" fill="white"></path><path id="Vector_43" d="M173.21 29C173.023 28.9982 172.843 28.931 172.7 28.81C172.634 28.747 172.581 28.6711 172.544 28.5868C172.508 28.5025 172.49 28.4117 172.49 28.32C172.489 28.2297 172.508 28.1402 172.544 28.0575C172.58 27.9748 172.633 27.9006 172.7 27.84C172.767 27.7739 172.847 27.7227 172.935 27.69C173.023 27.6572 173.117 27.6436 173.21 27.65C173.401 27.6467 173.586 27.7144 173.73 27.84C173.799 27.8994 173.853 27.9733 173.889 28.0563C173.926 28.1393 173.943 28.2294 173.94 28.32C173.941 28.4117 173.922 28.5025 173.886 28.5868C173.85 28.6711 173.797 28.747 173.73 28.81C173.589 28.9391 173.402 29.0074 173.21 29ZM173.97 38.24H172.52V29.72H174L173.97 38.24Z" fill="white"></path><path id="Vector_44" d="M175.66 37.8597V36.4097C175.798 36.541 175.957 36.6491 176.13 36.7297C176.315 36.8211 176.505 36.9012 176.7 36.9697C176.894 37.0396 177.095 37.0898 177.3 37.1197C177.481 37.1545 177.665 37.1712 177.85 37.1697C178.305 37.2024 178.761 37.1016 179.16 36.8797C179.3 36.7852 179.414 36.6568 179.491 36.5064C179.568 36.356 179.605 36.1886 179.6 36.0197C179.602 35.8368 179.553 35.657 179.46 35.4997C179.35 35.3449 179.215 35.2096 179.06 35.0997C178.871 34.9683 178.67 34.8545 178.46 34.7597L177.7 34.4097C177.4 34.2597 177.15 34.0997 176.89 33.9497C176.656 33.8032 176.441 33.6286 176.25 33.4297C176.068 33.2454 175.922 33.0282 175.82 32.7897C175.707 32.5245 175.652 32.238 175.66 31.9497C175.658 31.5967 175.755 31.2502 175.94 30.9497C176.115 30.656 176.359 30.4089 176.65 30.2297C176.958 30.033 177.295 29.8877 177.65 29.7997C178.668 29.5692 179.729 29.6211 180.72 29.9497V31.3297C180.172 30.9698 179.525 30.7881 178.87 30.8097C178.662 30.8099 178.454 30.83 178.25 30.8697C178.056 30.8963 177.869 30.9609 177.7 31.0597C177.541 31.1391 177.404 31.2558 177.3 31.3997C177.195 31.5524 177.143 31.7348 177.15 31.9197C177.141 32.0881 177.183 32.2554 177.27 32.3997C177.358 32.5471 177.473 32.6762 177.61 32.7797C177.783 32.9057 177.967 33.0161 178.16 33.1097L178.92 33.4497C179.206 33.5967 179.483 33.7604 179.75 33.9397C180.003 34.0999 180.235 34.2914 180.44 34.5097C180.643 34.7041 180.804 34.9392 180.91 35.1997C181.031 35.4629 181.089 35.7504 181.08 36.0397C181.09 36.4196 181.001 36.7954 180.82 37.1297C180.645 37.4235 180.401 37.6705 180.11 37.8497C179.802 38.0386 179.463 38.1738 179.11 38.2497C178.715 38.3322 178.313 38.3724 177.91 38.3697C177.77 38.3697 177.6 38.3697 177.39 38.3697C177.18 38.3697 176.98 38.3697 176.75 38.2897C176.54 38.2517 176.332 38.1983 176.13 38.1297C175.962 38.0604 175.804 37.9696 175.66 37.8597ZM179.66 39.6597C179.66 40.4197 179.09 40.7997 177.96 40.7997C177.797 40.8108 177.633 40.8108 177.47 40.7997V40.1397C177.65 40.1397 177.78 40.1397 177.89 40.1397C178.4 40.1397 178.68 39.9797 178.68 39.6497C178.68 39.3197 178.44 39.2197 177.97 39.2197C177.897 39.2126 177.823 39.2126 177.75 39.2197V38.1897H178.56V38.7397C178.849 38.7257 179.135 38.8104 179.37 38.9797C179.468 39.063 179.544 39.1677 179.595 39.2857C179.645 39.4036 179.667 39.5317 179.66 39.6597Z" fill="white"></path><path id="Vector_45" d="M189.58 38.1897H188.05L187.29 35.9997H183.94L183.22 38.1497H181.68L184.86 29.6797H186.44L189.58 38.1897ZM186.91 34.8997L185.74 31.5197C185.69 31.3426 185.654 31.1621 185.63 30.9797C185.615 31.1642 185.574 31.3459 185.51 31.5197L184.36 34.8997H186.91Z" fill="white"></path><path id="Vector_46" d="M195.31 30.9288H192.15V33.4688H195.07V34.6588H192.15V38.1887H190.75V29.7188H195.33V30.9288H195.31Z" fill="white"></path><path id="Vector_47" d="M206.76 29.7388L203.76 38.2087H202.19L199.19 29.7388H200.73L202.81 36.1588C202.884 36.3868 202.938 36.6211 202.97 36.8588C203.002 36.6137 203.059 36.3725 203.14 36.1388L205.28 29.7188H206.76V29.7388Z" fill="white"></path><path id="Vector_48" d="M207.33 33.3585H213.76C213.725 32.6406 213.409 31.9655 212.88 31.4784C212.325 31.003 211.61 30.7564 210.88 30.7885C210.026 30.7692 209.187 31.0174 208.48 31.4985V30.2084C209.261 29.7699 210.145 29.5522 211.04 29.5785C211.606 29.5423 212.174 29.627 212.705 29.827C213.236 30.027 213.718 30.3377 214.12 30.7384C214.508 31.1658 214.807 31.6663 215 32.2106C215.192 32.7549 215.274 33.3321 215.24 33.9085C215.282 35.0718 214.882 36.2079 214.12 37.0885C213.744 37.5069 213.28 37.837 212.761 38.0548C212.243 38.2727 211.682 38.3729 211.12 38.3484C210.58 38.3767 210.04 38.2774 209.545 38.0586C209.05 37.8397 208.613 37.5073 208.27 37.0885C207.551 35.9841 207.22 34.6717 207.33 33.3585ZM213.76 34.5284H208.85C208.832 35.2193 209.063 35.8936 209.5 36.4285C209.716 36.665 209.981 36.8513 210.276 36.974C210.572 37.0967 210.891 37.1529 211.21 37.1384C211.54 37.1487 211.868 37.091 212.174 36.9688C212.48 36.8467 212.758 36.6627 212.99 36.4285C213.462 35.9052 213.735 35.2326 213.76 34.5284Z" fill="white"></path><path id="Vector_49" d="M89.92 53.71H88.39L84.39 47.49C84.2939 47.3353 84.2071 47.175 84.13 47.01C84.156 47.3929 84.156 47.7771 84.13 48.16V53.71H82.75V45.25H84.38L88.28 51.32C88.3993 51.4798 88.5031 51.6505 88.59 51.83C88.5673 51.4537 88.5673 51.0763 88.59 50.7V45.25H89.9V53.71H89.92Z" fill="white"></path><path id="Vector_50" d="M91.4601 48.8883H97.8901C97.8747 48.53 97.7881 48.1783 97.6353 47.8538C97.4824 47.5293 97.2665 47.2385 97.0001 46.9983C96.4466 46.5202 95.7306 46.2732 95.0001 46.3083C94.147 46.2888 93.3088 46.5333 92.6001 47.0083V45.7283C93.3777 45.2932 94.2594 45.0788 95.1501 45.1083C95.7167 45.0757 96.2838 45.1611 96.8157 45.359C97.3476 45.557 97.8326 45.8632 98.2401 46.2583C98.6271 46.6884 98.9253 47.1908 99.1175 47.7365C99.3097 48.2823 99.3921 48.8606 99.3601 49.4383C99.3971 50.598 98.9974 51.7293 98.2401 52.6083C97.864 53.0268 97.4 53.3569 96.8813 53.5747C96.3626 53.7926 95.8021 53.8928 95.2401 53.8683C94.6991 53.8999 94.1583 53.802 93.6627 53.5829C93.1671 53.3638 92.7308 53.0297 92.3901 52.6083C91.6738 51.5068 91.3464 50.1974 91.4601 48.8883ZM97.8901 50.0583H93.0001C92.989 50.7497 93.2228 51.4227 93.6601 51.9583C93.8764 52.1931 94.1417 52.3775 94.4372 52.4985C94.7327 52.6194 95.0512 52.674 95.3701 52.6583C95.6972 52.6685 96.023 52.6117 96.3274 52.4913C96.6318 52.3709 96.9084 52.1896 97.1401 51.9583C97.6046 51.4322 97.87 50.7599 97.8901 50.0583Z" fill="white"></path><path id="Vector_51" d="M104.43 53.85C103.861 53.8593 103.297 53.7539 102.77 53.54C102.285 53.3416 101.849 53.0415 101.49 52.66C101.139 52.2679 100.864 51.8134 100.68 51.32C100.483 50.7614 100.384 50.1725 100.39 49.58C100.383 48.9515 100.481 48.3262 100.68 47.73C100.857 47.2078 101.139 46.7278 101.51 46.32C101.873 45.9243 102.321 45.6165 102.82 45.42C103.371 45.2055 103.959 45.1002 104.55 45.11C105.105 45.1036 105.656 45.2091 106.17 45.42C106.645 45.6249 107.074 45.9243 107.43 46.3C107.788 46.687 108.064 47.1429 108.24 47.64C108.437 48.1954 108.535 48.7809 108.53 49.37C108.545 50.1204 108.405 50.8658 108.12 51.56C107.878 52.1512 107.493 52.6733 107 53.08L109.44 54.85H107.31L105.79 53.68L105.17 53.82C104.924 53.8475 104.677 53.8575 104.43 53.85ZM104.5 46.35C104.142 46.3398 103.786 46.412 103.46 46.5611C103.134 46.7102 102.847 46.9322 102.62 47.21C102.376 47.5046 102.193 47.8444 102.08 48.21C101.95 48.631 101.886 49.0695 101.89 49.51C101.888 49.9405 101.952 50.3688 102.08 50.78C102.187 51.1439 102.363 51.4836 102.6 51.78C102.821 52.0466 103.097 52.2617 103.41 52.41C103.721 52.5637 104.063 52.6425 104.41 52.64C104.784 52.6468 105.155 52.5753 105.5 52.43C105.819 52.2958 106.103 52.0906 106.33 51.83C106.568 51.5358 106.741 51.1952 106.84 50.83C106.969 50.4054 107.033 49.9638 107.03 49.52C107.04 49.0674 106.982 48.6158 106.86 48.18C106.757 47.8183 106.588 47.4791 106.36 47.18C106.154 46.9011 105.873 46.6862 105.55 46.56C105.216 46.4241 104.86 46.3528 104.5 46.35Z" fill="white"></path><path id="Vector_52" d="M114.76 53.71H110.07V45.25H111.46V52.52H114.74V53.71H114.76Z" fill="white"></path><path id="Vector_53" d="M116.69 44.4697C116.501 44.4662 116.317 44.3993 116.17 44.2797C116.107 44.217 116.056 44.1423 116.022 44.0599C115.987 43.9775 115.97 43.889 115.97 43.7997C115.97 43.6165 116.042 43.4406 116.17 43.3097C116.312 43.1805 116.499 43.1123 116.69 43.1197C116.881 43.1164 117.066 43.1841 117.21 43.3097C117.277 43.372 117.33 43.4481 117.364 43.5327C117.399 43.6173 117.414 43.7084 117.41 43.7997C117.413 43.8893 117.397 43.9785 117.362 44.0613C117.328 44.1441 117.276 44.2185 117.21 44.2797C117.067 44.407 116.881 44.475 116.69 44.4697ZM117.43 53.7097H116V45.2497H117.45L117.43 53.7097Z" fill="white"></path><path id="Vector_54" d="M125.4 45.26L122.62 50.64V53.71H121.23V50.66L118.52 45.25H120.12L121.78 48.87C121.847 49.026 121.904 49.1863 121.95 49.35C121.999 49.1847 122.063 49.0241 122.14 48.87L123.88 45.25H125.38L125.4 45.26Z" fill="white"></path><path id="Vector_55" d="M132.39 45.26L129.61 50.64V53.71H128.21V50.66L125.5 45.25H127.11L128.76 48.87C128.828 49.0268 128.888 49.1871 128.94 49.35C128.94 49.23 129.05 49.06 129.13 48.87L130.88 45.25H132.38L132.39 45.26Z" fill="white"></path><path id="Vector_56" d="M139.49 53.71H138L137.24 51.56H133.91L133.19 53.71H131.65L134.82 45.25H136.41L139.49 53.71ZM136.82 50.42L135.65 47C135.598 46.8234 135.561 46.6428 135.54 46.46C135.517 46.6443 135.473 46.8254 135.41 47L134.26 50.38L136.82 50.42Z" fill="white"></path><path id="Vector_57" d="M145.22 46.4498H142.79V53.7098H141.39V46.4498H139V45.2598H145.26V46.4498H145.22Z" fill="white"></path><path id="Vector_58" d="M157 53.71H155.46L151.46 47.49C151.363 47.3374 151.279 47.1768 151.21 47.01C151.258 47.3913 151.275 47.7759 151.26 48.16V53.71H149.9V45.25H151.54L155.44 51.32C155.61 51.58 155.71 51.75 155.75 51.83C155.711 51.4547 155.694 51.0773 155.7 50.7V45.25H157V53.71Z" fill="white"></path><path id="Vector_59" d="M166 53.71H164.47L163.71 51.56H160.38L159.66 53.71H158.12L161.29 45.25H162.88L166 53.71ZM163.33 50.42L162.16 47C162.108 46.8234 162.071 46.6428 162.05 46.46C162.025 46.6429 161.985 46.8235 161.93 47L160.77 50.38L163.33 50.42Z" fill="white"></path><path id="Vector_60" d="M173.2 45.8698L168.56 52.5198H173.13V53.7098H166.59V53.0798L171.25 46.4498H167V45.2598H173.25V45.8698H173.2Z" fill="white"></path><path id="Vector_61" d="M175.21 44.4698C175.023 44.468 174.843 44.4008 174.7 44.2798C174.633 44.2191 174.58 44.145 174.544 44.0623C174.508 43.9795 174.489 43.8901 174.49 43.7998C174.49 43.7081 174.508 43.6173 174.544 43.533C174.581 43.4487 174.634 43.3727 174.7 43.3098C174.768 43.2457 174.848 43.1958 174.936 43.1632C175.024 43.1306 175.117 43.1158 175.21 43.1198C175.401 43.1165 175.586 43.1842 175.73 43.3098C175.798 43.3716 175.852 43.4473 175.889 43.5319C175.925 43.6164 175.943 43.7078 175.94 43.7998C175.941 43.8901 175.923 43.9795 175.887 44.0623C175.85 44.145 175.797 44.2191 175.73 44.2798C175.661 44.3456 175.58 44.3965 175.49 44.4292C175.401 44.4619 175.305 44.4757 175.21 44.4698ZM175.96 53.7098H174.51V45.2498H176L175.96 53.7098Z" fill="white"></path><path id="Vector_62" d="M184.58 53.71H182.94L181.6 51.46C181.489 51.2721 181.365 51.0917 181.23 50.92C181.128 50.7831 181.007 50.6618 180.87 50.56C180.748 50.4706 180.613 50.3998 180.47 50.35C180.316 50.2979 180.153 50.2742 179.99 50.28H179.42V53.71H178V45.25H180.77C181.144 45.2508 181.516 45.2944 181.88 45.38C182.197 45.4736 182.495 45.6225 182.76 45.82C183.003 46.0075 183.201 46.2466 183.34 46.52C183.484 46.8333 183.556 47.1751 183.55 47.52C183.551 47.8026 183.503 48.0833 183.41 48.35C183.328 48.5958 183.199 48.8234 183.03 49.02C182.868 49.2199 182.672 49.3892 182.45 49.52C182.208 49.6632 181.945 49.7678 181.67 49.83C181.812 49.9137 181.946 50.0108 182.07 50.12C182.184 50.2225 182.291 50.3327 182.39 50.45C182.504 50.568 182.607 50.6951 182.7 50.83C182.81 50.97 182.91 51.14 183.03 51.31L184.58 53.71ZM179.44 46.4V49.14H180.61C180.818 49.1442 181.024 49.1103 181.22 49.04C181.4 48.9813 181.564 48.8821 181.7 48.75C181.842 48.6226 181.949 48.4607 182.01 48.28C182.088 48.0896 182.129 47.8859 182.13 47.68C182.149 47.4952 182.125 47.3085 182.059 47.1349C181.993 46.9612 181.887 46.8055 181.75 46.68C181.437 46.4347 181.047 46.3104 180.65 46.33H179.44V46.4Z" fill="white"></path><path id="Vector_63" d="M190.25 53.71H185.56V45.25H187V52.52H190.28V53.71H190.25Z" fill="white"></path><path id="Vector_64" d="M192.17 44.4697C191.98 44.4662 191.797 44.3993 191.65 44.2797C191.583 44.219 191.53 44.1449 191.494 44.0622C191.457 43.9794 191.439 43.89 191.44 43.7997C191.44 43.708 191.458 43.6172 191.494 43.5329C191.53 43.4486 191.583 43.3726 191.65 43.3097C191.792 43.1805 191.978 43.1123 192.17 43.1197C192.361 43.1164 192.546 43.1841 192.69 43.3097C192.755 43.3731 192.807 43.4494 192.841 43.5338C192.876 43.6181 192.892 43.7086 192.89 43.7997C192.89 43.889 192.873 43.9775 192.838 44.0599C192.804 44.1423 192.754 44.217 192.69 44.2797C192.621 44.3455 192.539 44.3964 192.45 44.4291C192.36 44.4618 192.265 44.4756 192.17 44.4697ZM192.91 53.7097H191.46V45.2497H192.91V53.7097Z" fill="white"></path><path id="Vector_65" d="M200.9 45.26L198.12 50.64V53.71H196.72V50.66L194 45.25H195.61L197.26 48.87C197.328 49.0268 197.388 49.1871 197.44 49.35C197.44 49.23 197.55 49.06 197.63 48.87L199.38 45.25H200.88L200.9 45.26Z" fill="white"></path><path id="Vector_66" d="M202.67 44.4698C202.483 44.468 202.303 44.4008 202.16 44.2798C202.093 44.2191 202.04 44.145 202.004 44.0623C201.968 43.9795 201.949 43.8901 201.95 43.7998C201.95 43.7081 201.968 43.6173 202.004 43.533C202.041 43.4487 202.094 43.3727 202.16 43.3098C202.228 43.2457 202.308 43.1958 202.396 43.1632C202.484 43.1306 202.577 43.1158 202.67 43.1198C202.861 43.1165 203.046 43.1842 203.19 43.3098C203.258 43.3716 203.312 43.4473 203.349 43.5319C203.385 43.6164 203.402 43.7078 203.4 43.7998C203.401 43.8901 203.383 43.9795 203.347 44.0623C203.31 44.145 203.257 44.2191 203.19 44.2798C203.049 44.4089 202.862 44.4772 202.67 44.4698ZM203.41 53.7098H202V45.2498H203.44L203.41 53.7098Z" fill="white"></path></g></g></svg>